<svg width="50" height="44" viewBox="0 0 50 44" fill="none" xmlns="http://www.w3.org/2000/svg">
    <path d="M32 30C31.4477 30 31 30.4477 31 31C31 31.5523 31.4477 32 32 32V30ZM41.04 15.2L40.0475 15.0775C40.0124 15.3619 40.101 15.6477 40.2908 15.8624C40.4806 16.0771 40.7534 16.2 41.04 16.2V15.2ZM17.607 9.48702L16.8992 10.1935C17.1401 10.4348 17.4873 10.5367 17.8204 10.464C18.1535 10.3912 18.4265 10.1538 18.5449 9.83406L17.607 9.48702ZM7.36 13.982L7.62641 14.9459C8.07265 14.8225 8.37589 14.409 8.35936 13.9463L7.36 13.982ZM18 32C18.5523 32 19 31.5523 19 31C19 30.4477 18.5523 30 18 30V32ZM30.7071 37.7071C31.0976 37.3166 31.0976 36.6834 30.7071 36.2929C30.3166 35.9024 29.6834 35.9024 29.2929 36.2929L30.7071 37.7071ZM25 42L24.2929 42.7071L25 43.4142L25.7071 42.7071L25 42ZM20.7071 36.2929C20.3166 35.9024 19.6834 35.9024 19.2929 36.2929C18.9024 36.6834 18.9024 37.3166 19.2929 37.7071L20.7071 36.2929ZM26 22C26 21.4477 25.5523 21 25 21C24.4477 21 24 21.4477 24 22H26ZM24 41.668C24 42.2203 24.4477 42.668 25 42.668C25.5523 42.668 26 42.2203 26 41.668H24ZM32 31C32 32 32 32 32.0001 32C32.0002 32 32.0003 32 32.0004 32C32.0005 32 32.0007 32 32.0009 32C32.001 32 32.0013 32 32.0015 32C32.0018 32 32.002 32 32.0024 32C32.0027 32 32.003 32 32.0034 32C32.0038 32 32.0042 32 32.0046 32C32.0051 32 32.0055 32 32.006 32C32.0065 32 32.0071 32 32.0076 32C32.0082 32 32.0088 32 32.0094 32C32.01 32 32.0107 32 32.0114 32C32.012 32 32.0127 32 32.0135 32C32.0142 32 32.015 32 32.0158 32C32.0166 32 32.0175 32 32.0183 32C32.0192 32 32.0201 32 32.021 32C32.0219 32 32.0229 32 32.0239 32C32.0249 32 32.0259 32 32.0269 32C32.028 32 32.029 32 32.0301 32C32.0312 32 32.0324 32 32.0335 32C32.0347 32 32.0359 32 32.0371 32C32.0383 32 32.0396 32 32.0409 32C32.0421 32 32.0434 32 32.0448 32C32.0461 32 32.0475 32 32.0489 32C32.0503 32 32.0517 32 32.0532 32C32.0546 32 32.0561 32 32.0576 32C32.0591 32 32.0607 32 32.0622 32C32.0638 32 32.0654 32 32.067 32C32.0686 32 32.0703 32 32.072 32C32.0737 32 32.0754 32 32.0771 32C32.0789 32 32.0806 32 32.0824 32C32.0842 32 32.086 32 32.0879 32C32.0898 32 32.0916 32 32.0935 32C32.0954 32 32.0974 32 32.0993 32C32.1013 32 32.1033 32 32.1053 32C32.1073 32 32.1094 32 32.1115 32C32.1135 32 32.1156 32 32.1178 32C32.1199 32 32.1221 32 32.1242 32C32.1264 32 32.1286 32 32.1309 32C32.1331 32 32.1354 32 32.1377 32C32.14 32 32.1423 32 32.1446 32C32.147 32 32.1494 32 32.1518 32C32.1542 32 32.1566 32 32.1591 32C32.1615 32 32.164 32 32.1665 32C32.169 32 32.1715 32 32.1741 32C32.1767 32 32.1793 32 32.1819 32C32.1845 32 32.1871 32 32.1898 32C32.1925 32 32.1952 32 32.1979 32C32.2006 32 32.2033 32 32.2061 32C32.2089 32 32.2117 32 32.2145 32C32.2173 32 32.2202 32 32.2231 32C32.2259 32 32.2288 32 32.2318 32C32.2347 32 32.2376 32 32.2406 32C32.2436 32 32.2466 32 32.2496 32C32.2527 32 32.2557 32 32.2588 32C32.2619 32 32.265 32 32.2681 32C32.2712 32 32.2744 32 32.2776 32C32.2808 32 32.284 32 32.2872 32C32.2904 32 32.2937 32 32.297 32C32.3003 32 32.3036 32 32.3069 32C32.3102 32 32.3136 32 32.317 32C32.3203 32 32.3237 32 32.3272 32C32.3306 32 32.3341 32 32.3375 32C32.341 32 32.3445 32 32.348 32C32.3516 32 32.3551 32 32.3587 32C32.3623 32 32.3659 32 32.3695 32C32.3731 32 32.3768 32 32.3804 32C32.3841 32 32.3878 32 32.3915 32C32.3952 32 32.399 32 32.4027 32C32.4065 32 32.4103 32 32.4141 32C32.4179 32 32.4218 32 32.4256 32C32.4295 32 32.4334 32 32.4373 32C32.4412 32 32.4451 32 32.4491 32C32.453 32 32.457 32 32.461 32C32.465 32 32.469 32 32.4731 32C32.4771 32 32.4812 32 32.4853 32C32.4894 32 32.4935 32 32.4976 32C32.5018 32 32.5059 32 32.5101 32C32.5143 32 32.5185 32 32.5227 32C32.527 32 32.5312 32 32.5355 32C32.5398 32 32.5441 32 32.5484 32C32.5527 32 32.557 32 32.5614 32C32.5658 32 32.5701 32 32.5745 32C32.579 32 32.5834 32 32.5878 32C32.5923 32 32.5968 32 32.6012 32C32.6057 32 32.6103 32 32.6148 32C32.6193 32 32.6239 32 32.6285 32C32.6331 32 32.6377 32 32.6423 32C32.6469 32 32.6516 32 32.6562 32C32.6609 32 32.6656 32 32.6703 32C32.675 32 32.6797 32 32.6845 32C32.6892 32 32.694 32 32.6988 32C32.7036 32 32.7084 32 32.7132 32C32.7181 32 32.7229 32 32.7278 32C32.7327 32 32.7376 32 32.7425 32C32.7474 32 32.7524 32 32.7573 32C32.7623 32 32.7673 32 32.7723 32C32.7773 32 32.7823 32 32.7873 32C32.7924 32 32.7974 32 32.8025 32C32.8076 32 32.8127 32 32.8178 32C32.8229 32 32.8281 32 32.8332 32C32.8384 32 32.8436 32 32.8488 32C32.854 32 32.8592 32 32.8644 32C32.8697 32 32.8749 32 32.8802 32C32.8855 32 32.8908 32 32.8961 32C32.9014 32 32.9068 32 32.9121 32C32.9175 32 32.9229 32 32.9283 32C32.9337 32 32.9391 32 32.9445 32C32.9499 32 32.9554 32 32.9609 32C32.9663 32 32.9718 32 32.9773 32C32.9829 32 32.9884 32 32.9939 32C32.9995 32 33.005 32 33.0106 32C33.0162 32 33.0218 32 33.0274 32C33.0331 32 33.0387 32 33.0444 32C33.05 32 33.0557 32 33.0614 32C33.0671 32 33.0728 32 33.0785 32C33.0843 32 33.09 32 33.0958 32C33.1016 32 33.1073 32 33.1131 32C33.119 32 33.1248 32 33.1306 32C33.1365 32 33.1423 32 33.1482 32C33.1541 32 33.16 32 33.1659 32C33.1718 32 33.1777 32 33.1837 32C33.1896 32 33.1956 32 33.2015 32C33.2075 32 33.2135 32 33.2195 32C33.2255 32 33.2316 32 33.2376 32C33.2437 32 33.2497 32 33.2558 32C33.2619 32 33.268 32 33.2741 32C33.2802 32 33.2864 32 33.2925 32C33.2987 32 33.3048 32 33.311 32C33.3172 32 33.3234 32 33.3296 32C33.3358 32 33.3421 32 33.3483 32C33.3546 32 33.3608 32 33.3671 32C33.3734 32 33.3797 32 33.386 32C33.3923 32 33.3987 32 33.405 32C33.4114 32 33.4177 32 33.4241 32C33.4305 32 33.4369 32 33.4433 32C33.4497 32 33.4561 32 33.4626 32C33.469 32 33.4755 32 33.4819 32C33.4884 32 33.4949 32 33.5014 32C33.5079 32 33.5144 32 33.521 32C33.5275 32 33.5341 32 33.5406 32C33.5472 32 33.5538 32 33.5604 32C33.567 32 33.5736 32 33.5802 32C33.5868 32 33.5935 32 33.6001 32C33.6068 32 33.6134 32 33.6201 32C33.6268 32 33.6335 32 33.6402 32C33.6469 32 33.6537 32 33.6604 32C33.6672 32 33.6739 32 33.6807 32C33.6875 32 33.6942 32 33.701 32C33.7078 32 33.7147 32 33.7215 32C33.7283 32 33.7352 32 33.742 32C33.7489 32 33.7557 32 33.7626 32C33.7695 32 33.7764 32 33.7833 32C33.7902 32 33.7972 32 33.8041 32C33.811 32 33.818 32 33.825 32C33.8319 32 33.8389 32 33.8459 32C33.8529 32 33.8599 32 33.8669 32C33.874 32 33.881 32 33.888 32C33.8951 32 33.9021 32 33.9092 32C33.9163 32 33.9234 32 33.9305 32C33.9376 32 33.9447 32 33.9518 32C33.9589 32 33.9661 32 33.9732 32C33.9804 32 33.9875 32 33.9947 32C34.0019 32 34.0091 32 34.0163 32C34.0235 32 34.0307 32 34.0379 32C34.0452 32 34.0524 32 34.0597 32C34.0669 32 34.0742 32 34.0814 32C34.0887 32 34.096 32 34.1033 32C34.1106 32 34.1179 32 34.1252 32C34.1326 32 34.1399 32 34.1472 32C34.1546 32 34.1619 32 34.1693 32C34.1767 32 34.1841 32 34.1915 32C34.1989 32 34.2063 32 34.2137 32C34.2211 32 34.2285 32 34.236 32C34.2434 32 34.2509 32 34.2583 32C34.2658 32 34.2732 32 34.2807 32C34.2882 32 34.2957 32 34.3032 32C34.3107 32 34.3182 32 34.3258 32C34.3333 32 34.3408 32 34.3484 32C34.3559 32 34.3635 32 34.3711 32C34.3786 32 34.3862 32 34.3938 32C34.4014 32 34.409 32 34.4166 32C34.4242 32 34.4318 32 34.4395 32C34.4471 32 34.4548 32 34.4624 32C34.4701 32 34.4777 32 34.4854 32C34.4931 32 34.5008 32 34.5084 32C34.5161 32 34.5238 32 34.5316 32C34.5393 32 34.547 32 34.5547 32C34.5625 32 34.5702 32 34.578 32C34.5857 32 34.5935 32 34.6012 32C34.609 32 34.6168 32 34.6246 32C34.6324 32 34.6402 32 34.648 32C34.6558 32 34.6636 32 34.6714 32C34.6792 32 34.6871 32 34.6949 32C34.7028 32 34.7106 32 34.7185 32C34.7263 32 34.7342 32 34.7421 32C34.75 32 34.7579 32 34.7658 32C34.7736 32 34.7816 32 34.7895 32C34.7974 32 34.8053 32 34.8132 32C34.8212 32 34.8291 32 34.837 32C34.845 32 34.853 32 34.8609 32C34.8689 32 34.8768 32 34.8848 32C34.8928 32 34.9008 32 34.9088 32C34.9168 32 34.9248 32 34.9328 32C34.9408 32 34.9488 32 34.9569 32C34.9649 32 34.9729 32 34.981 32C34.989 32 34.997 32 35.0051 32C35.0132 32 35.0212 32 35.0293 32C35.0374 32 35.0454 32 35.0535 32C35.0616 32 35.0697 32 35.0778 32C35.0859 32 35.094 32 35.1021 32C35.1102 32 35.1184 32 35.1265 32C35.1346 32 35.1427 32 35.1509 32C35.159 32 35.1672 32 35.1753 32C35.1835 32 35.1916 32 35.1998 32C35.208 32 35.2161 32 35.2243 32C35.2325 32 35.2407 32 35.2489 32C35.2571 32 35.2653 32 35.2735 32C35.2817 32 35.2899 32 35.2981 32C35.3063 32 35.3145 32 35.3228 32C35.331 32 35.3392 32 35.3475 32C35.3557 32 35.364 32 35.3722 32C35.3805 32 35.3887 32 35.397 32C35.4052 32 35.4135 32 35.4218 32C35.4301 32 35.4383 32 35.4466 32C35.4549 32 35.4632 32 35.4715 32C35.4798 32 35.4881 32 35.4964 32C35.5047 32 35.513 32 35.5213 32C35.5296 32 35.538 32 35.5463 32C35.5546 32 35.5629 32 35.5713 32C35.5796 32 35.5879 32 35.5963 32C35.6046 32 35.613 32 35.6213 32C35.6297 32 35.638 32 35.6464 32C35.6548 32 35.6631 32 35.6715 32C35.6799 32 35.6882 32 35.6966 32C35.705 32 35.7134 32 35.7218 32C35.7302 32 35.7385 32 35.7469 32C35.7553 32 35.7637 32 35.7721 32C35.7805 32 35.7889 32 35.7973 32C35.8058 32 35.8142 32 35.8226 32C35.831 32 35.8394 32 35.8478 32C35.8563 32 35.8647 32 35.8731 32C35.8815 32 35.89 32 35.8984 32C35.9068 32 35.9153 32 35.9237 32C35.9322 32 35.9406 32 35.9491 32C35.9575 32 35.966 32 35.9744 32C35.9829 32 35.9913 32 35.9998 32C36.0082 32 36.0167 32 36.0252 32C36.0336 32 36.0421 32 36.0506 32C36.059 32 36.0675 32 36.076 32C36.0845 32 36.0929 32 36.1014 32C36.1099 32 36.1184 32 36.1269 32C36.1353 32 36.1438 32 36.1523 32C36.1608 32 36.1693 32 36.1778 32C36.1863 32 36.1948 32 36.2033 32C36.2118 32 36.2203 32 36.2288 32C36.2372 32 36.2457 32 36.2542 32C36.2628 32 36.2713 32 36.2798 32C36.2883 32 36.2968 32 36.3053 32C36.3138 32 36.3223 32 36.3308 32C36.3393 32 36.3478 32 36.3563 32C36.3648 32 36.3733 32 36.3819 32C36.3904 32 36.3989 32 36.4074 32C36.4159 32 36.4244 32 36.433 32C36.4415 32 36.45 32 36.4585 32C36.467 32 36.4755 32 36.4841 32C36.4926 32 36.5011 32 36.5096 32C36.5181 32 36.5266 32 36.5352 32C36.5437 32 36.5522 32 36.5607 32C36.5692 32 36.5778 32 36.5863 32C36.5948 32 36.6033 32 36.6118 32C36.6204 32 36.6289 32 36.6374 32C36.6459 32 36.6544 32 36.663 32C36.6715 32 36.68 32 36.6885 32C36.697 32 36.7056 32 36.7141 32C36.7226 32 36.7311 32 36.7396 32C36.7481 32 36.7566 32 36.7652 32C36.7737 32 36.7822 32 36.7907 32C36.7992 32 36.8077 32 36.8162 32C36.8247 32 36.8333 32 36.8418 32C36.8503 32 36.8588 32 36.8673 32C36.8758 32 36.8843 32 36.8928 32C36.9013 32 36.9098 32 36.9183 32C36.9268 32 36.9353 32 36.9438 32C36.9523 32 36.9608 32 36.9693 32C36.9778 32 36.9863 32 36.9947 32C37.0032 32 37.0117 32 37.0202 32C37.0287 32 37.0372 32 37.0456 32C37.0541 32 37.0626 32 37.0711 32C37.0796 32 37.088 32 37.0965 32C37.105 32 37.1134 32 37.1219 32C37.1304 32 37.1388 32 37.1473 32C37.1558 32 37.1642 32 37.1727 32C37.1811 32 37.1896 32 37.198 32C37.2065 32 37.2149 32 37.2234 32C37.2318 32 37.2403 32 37.2487 32C37.2571 32 37.2656 32 37.274 32C37.2824 32 37.2909 32 37.2993 32C37.3077 32 37.3161 32 37.3246 32C37.333 32 37.3414 32 37.3498 32C37.3582 32 37.3666 32 37.375 32C37.3834 32 37.3918 32 37.4002 32C37.4086 32 37.417 32 37.4254 32C37.4338 32 37.4422 32 37.4506 32C37.459 32 37.4673 32 37.4757 32C37.4841 32 37.4924 32 37.5008 32C37.5092 32 37.5175 32 37.5259 32C37.5342 32 37.5426 32 37.5509 32C37.5593 32 37.5676 32 37.576 32C37.5843 32 37.5926 32 37.601 32C37.6093 32 37.6176 32 37.6259 32C37.6343 32 37.6426 32 37.6509 32C37.6592 32 37.6675 32 37.6758 32C37.6841 32 37.6924 32 37.7007 32C37.709 32 37.7172 32 37.7255 32C37.7338 32 37.7421 32 37.7503 32C37.7586 32 37.7669 32 37.7751 32C37.7834 32 37.7916 32 37.7999 32C37.8081 32 37.8164 32 37.8246 32C37.8328 32 37.8411 32 37.8493 32C37.8575 32 37.8657 32 37.8739 32C37.8821 32 37.8903 32 37.8985 32C37.9067 32 37.9149 32 37.9231 32C37.9313 32 37.9395 32 37.9476 32C37.9558 32 37.964 32 37.9721 32C37.9803 32 37.9885 32 37.9966 32C38.0047 32 38.0129 32 38.021 32C38.0292 32 38.0373 32 38.0454 32C38.0535 32 38.0616 32 38.0697 32C38.0778 32 38.0859 32 38.094 32C38.1021 32 38.1102 32 38.1183 32C38.1264 32 38.1344 32 38.1425 32C38.1505 32 38.1586 32 38.1666 32C38.1747 32 38.1827 32 38.1908 32C38.1988 32 38.2068 32 38.2148 32C38.2229 32 38.2309 32 38.2389 32C38.2469 32 38.2549 32 38.2629 32C38.2708 32 38.2788 32 38.2868 32C38.2948 32 38.3027 32 38.3107 32C38.3186 32 38.3266 32 38.3345 32C38.3424 32 38.3504 32 38.3583 32C38.3662 32 38.3741 32 38.382 32C38.3899 32 38.3978 32 38.4057 32C38.4136 32 38.4215 32 38.4293 32C38.4372 32 38.4451 32 38.4529 32C38.4608 32 38.4686 32 38.4764 32C38.4843 32 38.4921 32 38.4999 32C38.5077 32 38.5155 32 38.5233 32C38.5311 32 38.5389 32 38.5467 32C38.5545 32 38.5622 32 38.57 32C38.5778 32 38.5855 32 38.5933 32C38.601 32 38.6087 32 38.6164 32C38.6242 32 38.6319 32 38.6396 32C38.6473 32 38.655 32 38.6627 32C38.6703 32 38.678 32 38.6857 32C38.6933 32 38.701 32 38.7086 32C38.7163 32 38.7239 32 38.7315 32C38.7391 32 38.7467 32 38.7543 32C38.7619 32 38.7695 32 38.7771 32C38.7847 32 38.7923 32 38.7998 32C38.8074 32 38.8149 32 38.8225 32C38.83 32 38.8375 32 38.845 32C38.8526 32 38.8601 32 38.8676 32C38.875 32 38.8825 32 38.89 32C38.8975 32 38.9049 32 38.9124 32C38.9198 32 38.9273 32 38.9347 32C38.9421 32 38.9495 32 38.9569 32C38.9643 32 38.9717 32 38.9791 32C38.9865 32 38.9939 32 39.0012 32C39.0086 32 39.0159 32 39.0232 32C39.0306 32 39.0379 32 39.0452 32C39.0525 32 39.0598 32 39.0671 32C39.0744 32 39.0817 32 39.0889 32C39.0962 32 39.1034 32 39.1107 32C39.1179 32 39.1251 32 39.1323 32C39.1395 32 39.1467 32 39.1539 32C39.1611 32 39.1683 32 39.1755 32C39.1826 32 39.1898 32 39.1969 32C39.204 32 39.2112 32 39.2183 32C39.2254 32 39.2325 32 39.2396 32C39.2467 32 39.2537 32 39.2608 32C39.2678 32 39.2749 32 39.2819 32C39.2889 32 39.296 32 39.303 32C39.31 32 39.317 32 39.3239 32C39.3309 32 39.3379 32 39.3448 32C39.3518 32 39.3587 32 39.3657 32C39.3726 32 39.3795 32 39.3864 32C39.3933 32 39.4002 32 39.407 32C39.4139 32 39.4208 32 39.4276 32C39.4344 32 39.4413 32 39.4481 32C39.4549 32 39.4617 32 39.4685 32C39.4753 32 39.482 32 39.4888 32C39.4955 32 39.5023 32 39.509 32C39.5157 32 39.5224 32 39.5291 32C39.5358 32 39.5425 32 39.5492 32C39.5559 32 39.5625 32 39.5691 32C39.5758 32 39.5824 32 39.589 32C39.5956 32 39.6022 32 39.6088 32C39.6154 32 39.6219 32 39.6285 32C39.635 32 39.6416 32 39.6481 32C39.6546 32 39.6611 32 39.6676 32C39.6741 32 39.6805 32 39.687 32C39.6934 32 39.6999 32 39.7063 32C39.7127 32 39.7191 32 39.7255 32C39.7319 32 39.7383 32 39.7447 32C39.751 32 39.7574 32 39.7637 32C39.77 32 39.7763 32 39.7826 32C39.7889 32 39.7952 32 39.8015 32C39.8077 32 39.814 32 39.8202 32C39.8264 32 39.8326 32 39.8388 32C39.845 32 39.8512 32 39.8574 32C39.8636 32 39.8697 32 39.8758 32C39.882 32 39.8881 32 39.8942 32C39.9003 32 39.9063 32 39.9124 32C39.9185 32 39.9245 32 39.9306 32C39.9366 32 39.9426 32 39.9486 32C39.9546 32 39.9606 32 39.9665 32C39.9725 32 39.9784 32 39.9843 32C39.9903 32 39.9962 32 40.0021 32C40.008 32 40.0138 32 40.0197 32C40.0255 32 40.0314 32 40.0372 32C40.043 32 40.0488 32 40.0546 32C40.0604 32 40.0661 32 40.0719 32C40.0776 32 40.0834 32 40.0891 32C40.0948 32 40.1005 32 40.1062 32C40.1118 32 40.1175 32 40.1231 32C40.1288 32 40.1344 32 40.14 32C40.1456 32 40.1512 32 40.1567 32C40.1623 32 40.1678 32 40.1734 32C40.1789 32 40.1844 32 40.1899 32C40.1954 32 40.2008 32 40.2063 32C40.2117 32 40.2172 32 40.2226 32C40.228 32 40.2334 32 40.2388 32C40.2441 32 40.2495 32 40.2548 32C40.2602 32 40.2655 32 40.2708 32C40.2761 32 40.2813 32 40.2866 32C40.2919 32 40.2971 32 40.3023 32C40.3075 32 40.3127 32 40.3179 32C40.3231 32 40.3282 32 40.3334 32C40.3385 32 40.3436 32 40.3487 32C40.3538 32 40.3589 32 40.364 32C40.369 32 40.3741 32 40.3791 32C40.3841 32 40.3891 32 40.3941 32C40.399 32 40.404 32 40.4089 32C40.4139 32 40.4188 32 40.4237 32C40.4286 32 40.4334 32 40.4383 32C40.4431 32 40.448 32 40.4528 32C40.4576 32 40.4624 32 40.4672 32C40.4719 32 40.4767 32 40.4814 32C40.4861 32 40.4908 32 40.4955 32C40.5002 32 40.5049 32 40.5095 32C40.5141 32 40.5188 32 40.5234 32C40.528 32 40.5325 32 40.5371 32C40.5417 32 40.5462 32 40.5507 32C40.5552 32 40.5597 32 40.5642 32C40.5686 32 40.5731 32 40.5775 32C40.5819 32 40.5863 32 40.5907 32C40.5951 32 40.5995 32 40.6038 32C40.6081 32 40.6124 32 40.6167 32C40.621 32 40.6253 32 40.6295 32C40.6338 32 40.638 32 40.6422 32C40.6464 32 40.6506 32 40.6548 32C40.6589 32 40.663 32 40.6672 32C40.6713 32 40.6754 32 40.6794 32C40.6835 32 40.6875 32 40.6915 32C40.6956 32 40.6996 32 40.7035 32C40.7075 32 40.7115 32 40.7154 32C40.7193 32 40.7232 32 40.7271 32C40.731 32 40.7348 32 40.7387 32C40.7425 32 40.7463 32 40.7501 32C40.7539 32 40.7576 32 40.7614 32C40.7651 32 40.7688 32 40.7725 32C40.7762 32 40.7799 32 40.7835 32C40.7872 32 40.7908 32 40.7944 32C40.798 32 40.8016 32 40.8051 32C40.8086 32 40.8122 32 40.8157 32C40.8192 32 40.8226 32 40.8261 32C40.8295 32 40.833 32 40.8364 32C40.8398 32 40.8431 32 40.8465 32C40.8498 32 40.8532 32 40.8565 32C40.8598 32 40.863 32 40.8663 32C40.8695 32 40.8728 32 40.876 32C40.8792 32 40.8824 32 40.8855 32C40.8887 32 40.8918 32 40.8949 32C40.898 32 40.9011 32 40.9041 32C40.9072 32 40.9102 32 40.9132 32C40.9162 32 40.9192 32 40.9221 32C40.9251 32 40.928 32 40.9309 32C40.9338 32 40.9366 32 40.9395 32C40.9423 32 40.9452 32 40.9479 32C40.9507 32 40.9535 32 40.9562 32C40.959 32 40.9617 32 40.9644 32C40.9671 32 40.9697 32 40.9724 32C40.975 32 40.9776 32 40.9802 32C40.9828 32 40.9854 32 40.9879 32C40.9904 32 40.9929 32 40.9954 32C40.9979 32 41.0003 32 41.0027 32C41.0052 32 41.0076 32 41.0099 32C41.0123 32 41.0146 32 41.017 32C41.0193 32 41.0216 32 41.0238 32C41.0261 32 41.0283 32 41.0305 32C41.0327 32 41.0349 32 41.0371 32C41.0392 32 41.0414 32 41.0435 32C41.0455 32 41.0476 32 41.0497 32C41.0517 32 41.0537 32 41.0557 32C41.0577 32 41.0597 32 41.0616 32C41.0635 32 41.0654 32 41.0673 32C41.0692 32 41.071 32 41.0728 32C41.0747 32 41.0764 32 41.0782 32C41.08 32 41.0817 32 41.0834 32C41.0851 32 41.0868 32 41.0884 32C41.0901 32 41.0917 32 41.0933 32C41.0949 32 41.0965 32 41.098 32V30C41.0965 30 41.0949 30 41.0933 30C41.0917 30 41.0901 30 41.0884 30C41.0868 30 41.0851 30 41.0834 30C41.0817 30 41.08 30 41.0782 30C41.0764 30 41.0747 30 41.0728 30C41.071 30 41.0692 30 41.0673 30C41.0654 30 41.0635 30 41.0616 30C41.0597 30 41.0577 30 41.0557 30C41.0537 30 41.0517 30 41.0497 30C41.0476 30 41.0455 30 41.0435 30C41.0414 30 41.0392 30 41.0371 30C41.0349 30 41.0327 30 41.0305 30C41.0283 30 41.0261 30 41.0238 30C41.0216 30 41.0193 30 41.017 30C41.0146 30 41.0123 30 41.0099 30C41.0076 30 41.0052 30 41.0027 30C41.0003 30 40.9979 30 40.9954 30C40.9929 30 40.9904 30 40.9879 30C40.9854 30 40.9828 30 40.9802 30C40.9776 30 40.975 30 40.9724 30C40.9697 30 40.9671 30 40.9644 30C40.9617 30 40.959 30 40.9562 30C40.9535 30 40.9507 30 40.9479 30C40.9452 30 40.9423 30 40.9395 30C40.9366 30 40.9338 30 40.9309 30C40.928 30 40.9251 30 40.9221 30C40.9192 30 40.9162 30 40.9132 30C40.9102 30 40.9072 30 40.9041 30C40.9011 30 40.898 30 40.8949 30C40.8918 30 40.8887 30 40.8855 30C40.8824 30 40.8792 30 40.876 30C40.8728 30 40.8695 30 40.8663 30C40.863 30 40.8598 30 40.8565 30C40.8532 30 40.8498 30 40.8465 30C40.8431 30 40.8398 30 40.8364 30C40.833 30 40.8295 30 40.8261 30C40.8226 30 40.8192 30 40.8157 30C40.8122 30 40.8086 30 40.8051 30C40.8016 30 40.798 30 40.7944 30C40.7908 30 40.7872 30 40.7835 30C40.7799 30 40.7762 30 40.7725 30C40.7688 30 40.7651 30 40.7614 30C40.7576 30 40.7539 30 40.7501 30C40.7463 30 40.7425 30 40.7387 30C40.7348 30 40.731 30 40.7271 30C40.7232 30 40.7193 30 40.7154 30C40.7115 30 40.7075 30 40.7035 30C40.6996 30 40.6956 30 40.6915 30C40.6875 30 40.6835 30 40.6794 30C40.6754 30 40.6713 30 40.6672 30C40.663 30 40.6589 30 40.6548 30C40.6506 30 40.6464 30 40.6422 30C40.638 30 40.6338 30 40.6295 30C40.6253 30 40.621 30 40.6167 30C40.6124 30 40.6081 30 40.6038 30C40.5995 30 40.5951 30 40.5907 30C40.5863 30 40.5819 30 40.5775 30C40.5731 30 40.5686 30 40.5642 30C40.5597 30 40.5552 30 40.5507 30C40.5462 30 40.5417 30 40.5371 30C40.5325 30 40.528 30 40.5234 30C40.5188 30 40.5141 30 40.5095 30C40.5049 30 40.5002 30 40.4955 30C40.4908 30 40.4861 30 40.4814 30C40.4767 30 40.4719 30 40.4672 30C40.4624 30 40.4576 30 40.4528 30C40.448 30 40.4431 30 40.4383 30C40.4334 30 40.4286 30 40.4237 30C40.4188 30 40.4139 30 40.4089 30C40.404 30 40.399 30 40.3941 30C40.3891 30 40.3841 30 40.3791 30C40.3741 30 40.369 30 40.364 30C40.3589 30 40.3538 30 40.3487 30C40.3436 30 40.3385 30 40.3334 30C40.3282 30 40.3231 30 40.3179 30C40.3127 30 40.3075 30 40.3023 30C40.2971 30 40.2919 30 40.2866 30C40.2813 30 40.2761 30 40.2708 30C40.2655 30 40.2602 30 40.2548 30C40.2495 30 40.2441 30 40.2388 30C40.2334 30 40.228 30 40.2226 30C40.2172 30 40.2117 30 40.2063 30C40.2008 30 40.1954 30 40.1899 30C40.1844 30 40.1789 30 40.1734 30C40.1678 30 40.1623 30 40.1567 30C40.1512 30 40.1456 30 40.14 30C40.1344 30 40.1288 30 40.1231 30C40.1175 30 40.1118 30 40.1062 30C40.1005 30 40.0948 30 40.0891 30C40.0834 30 40.0776 30 40.0719 30C40.0661 30 40.0604 30 40.0546 30C40.0488 30 40.043 30 40.0372 30C40.0314 30 40.0255 30 40.0197 30C40.0138 30 40.008 30 40.0021 30C39.9962 30 39.9903 30 39.9843 30C39.9784 30 39.9725 30 39.9665 30C39.9606 30 39.9546 30 39.9486 30C39.9426 30 39.9366 30 39.9306 30C39.9245 30 39.9185 30 39.9124 30C39.9063 30 39.9003 30 39.8942 30C39.8881 30 39.882 30 39.8758 30C39.8697 30 39.8636 30 39.8574 30C39.8512 30 39.845 30 39.8388 30C39.8326 30 39.8264 30 39.8202 30C39.814 30 39.8077 30 39.8015 30C39.7952 30 39.7889 30 39.7826 30C39.7763 30 39.77 30 39.7637 30C39.7574 30 39.751 30 39.7447 30C39.7383 30 39.7319 30 39.7255 30C39.7191 30 39.7127 30 39.7063 30C39.6999 30 39.6934 30 39.687 30C39.6805 30 39.6741 30 39.6676 30C39.6611 30 39.6546 30 39.6481 30C39.6416 30 39.635 30 39.6285 30C39.6219 30 39.6154 30 39.6088 30C39.6022 30 39.5956 30 39.589 30C39.5824 30 39.5758 30 39.5691 30C39.5625 30 39.5559 30 39.5492 30C39.5425 30 39.5358 30 39.5291 30C39.5224 30 39.5157 30 39.509 30C39.5023 30 39.4955 30 39.4888 30C39.482 30 39.4753 30 39.4685 30C39.4617 30 39.4549 30 39.4481 30C39.4413 30 39.4344 30 39.4276 30C39.4208 30 39.4139 30 39.407 30C39.4002 30 39.3933 30 39.3864 30C39.3795 30 39.3726 30 39.3657 30C39.3587 30 39.3518 30 39.3448 30C39.3379 30 39.3309 30 39.3239 30C39.317 30 39.31 30 39.303 30C39.296 30 39.2889 30 39.2819 30C39.2749 30 39.2678 30 39.2608 30C39.2537 30 39.2467 30 39.2396 30C39.2325 30 39.2254 30 39.2183 30C39.2112 30 39.204 30 39.1969 30C39.1898 30 39.1826 30 39.1755 30C39.1683 30 39.1611 30 39.1539 30C39.1467 30 39.1395 30 39.1323 30C39.1251 30 39.1179 30 39.1107 30C39.1034 30 39.0962 30 39.0889 30C39.0817 30 39.0744 30 39.0671 30C39.0598 30 39.0525 30 39.0452 30C39.0379 30 39.0306 30 39.0232 30C39.0159 30 39.0086 30 39.0012 30C38.9939 30 38.9865 30 38.9791 30C38.9717 30 38.9643 30 38.9569 30C38.9495 30 38.9421 30 38.9347 30C38.9273 30 38.9198 30 38.9124 30C38.9049 30 38.8975 30 38.89 30C38.8825 30 38.875 30 38.8676 30C38.8601 30 38.8526 30 38.845 30C38.8375 30 38.83 30 38.8225 30C38.8149 30 38.8074 30 38.7998 30C38.7923 30 38.7847 30 38.7771 30C38.7695 30 38.7619 30 38.7543 30C38.7467 30 38.7391 30 38.7315 30C38.7239 30 38.7163 30 38.7086 30C38.701 30 38.6933 30 38.6857 30C38.678 30 38.6703 30 38.6627 30C38.655 30 38.6473 30 38.6396 30C38.6319 30 38.6242 30 38.6164 30C38.6087 30 38.601 30 38.5933 30C38.5855 30 38.5778 30 38.57 30C38.5622 30 38.5545 30 38.5467 30C38.5389 30 38.5311 30 38.5233 30C38.5155 30 38.5077 30 38.4999 30C38.4921 30 38.4843 30 38.4764 30C38.4686 30 38.4608 30 38.4529 30C38.4451 30 38.4372 30 38.4293 30C38.4215 30 38.4136 30 38.4057 30C38.3978 30 38.3899 30 38.382 30C38.3741 30 38.3662 30 38.3583 30C38.3504 30 38.3424 30 38.3345 30C38.3266 30 38.3186 30 38.3107 30C38.3027 30 38.2948 30 38.2868 30C38.2788 30 38.2708 30 38.2629 30C38.2549 30 38.2469 30 38.2389 30C38.2309 30 38.2229 30 38.2148 30C38.2068 30 38.1988 30 38.1908 30C38.1827 30 38.1747 30 38.1666 30C38.1586 30 38.1505 30 38.1425 30C38.1344 30 38.1264 30 38.1183 30C38.1102 30 38.1021 30 38.094 30C38.0859 30 38.0778 30 38.0697 30C38.0616 30 38.0535 30 38.0454 30C38.0373 30 38.0292 30 38.021 30C38.0129 30 38.0047 30 37.9966 30C37.9885 30 37.9803 30 37.9721 30C37.964 30 37.9558 30 37.9476 30C37.9395 30 37.9313 30 37.9231 30C37.9149 30 37.9067 30 37.8985 30C37.8903 30 37.8821 30 37.8739 30C37.8657 30 37.8575 30 37.8493 30C37.8411 30 37.8328 30 37.8246 30C37.8164 30 37.8081 30 37.7999 30C37.7916 30 37.7834 30 37.7751 30C37.7669 30 37.7586 30 37.7503 30C37.7421 30 37.7338 30 37.7255 30C37.7172 30 37.709 30 37.7007 30C37.6924 30 37.6841 30 37.6758 30C37.6675 30 37.6592 30 37.6509 30C37.6426 30 37.6343 30 37.6259 30C37.6176 30 37.6093 30 37.601 30C37.5926 30 37.5843 30 37.576 30C37.5676 30 37.5593 30 37.5509 30C37.5426 30 37.5342 30 37.5259 30C37.5175 30 37.5092 30 37.5008 30C37.4924 30 37.4841 30 37.4757 30C37.4673 30 37.459 30 37.4506 30C37.4422 30 37.4338 30 37.4254 30C37.417 30 37.4086 30 37.4002 30C37.3918 30 37.3834 30 37.375 30C37.3666 30 37.3582 30 37.3498 30C37.3414 30 37.333 30 37.3246 30C37.3161 30 37.3077 30 37.2993 30C37.2909 30 37.2824 30 37.274 30C37.2656 30 37.2571 30 37.2487 30C37.2403 30 37.2318 30 37.2234 30C37.2149 30 37.2065 30 37.198 30C37.1896 30 37.1811 30 37.1727 30C37.1642 30 37.1558 30 37.1473 30C37.1388 30 37.1304 30 37.1219 30C37.1134 30 37.105 30 37.0965 30C37.088 30 37.0796 30 37.0711 30C37.0626 30 37.0541 30 37.0456 30C37.0372 30 37.0287 30 37.0202 30C37.0117 30 37.0032 30 36.9947 30C36.9863 30 36.9778 30 36.9693 30C36.9608 30 36.9523 30 36.9438 30C36.9353 30 36.9268 30 36.9183 30C36.9098 30 36.9013 30 36.8928 30C36.8843 30 36.8758 30 36.8673 30C36.8588 30 36.8503 30 36.8418 30C36.8333 30 36.8247 30 36.8162 30C36.8077 30 36.7992 30 36.7907 30C36.7822 30 36.7737 30 36.7652 30C36.7566 30 36.7481 30 36.7396 30C36.7311 30 36.7226 30 36.7141 30C36.7056 30 36.697 30 36.6885 30C36.68 30 36.6715 30 36.663 30C36.6544 30 36.6459 30 36.6374 30C36.6289 30 36.6204 30 36.6118 30C36.6033 30 36.5948 30 36.5863 30C36.5778 30 36.5692 30 36.5607 30C36.5522 30 36.5437 30 36.5352 30C36.5266 30 36.5181 30 36.5096 30C36.5011 30 36.4926 30 36.4841 30C36.4755 30 36.467 30 36.4585 30C36.45 30 36.4415 30 36.433 30C36.4244 30 36.4159 30 36.4074 30C36.3989 30 36.3904 30 36.3819 30C36.3733 30 36.3648 30 36.3563 30C36.3478 30 36.3393 30 36.3308 30C36.3223 30 36.3138 30 36.3053 30C36.2968 30 36.2883 30 36.2798 30C36.2713 30 36.2628 30 36.2542 30C36.2457 30 36.2372 30 36.2288 30C36.2203 30 36.2118 30 36.2033 30C36.1948 30 36.1863 30 36.1778 30C36.1693 30 36.1608 30 36.1523 30C36.1438 30 36.1353 30 36.1269 30C36.1184 30 36.1099 30 36.1014 30C36.0929 30 36.0845 30 36.076 30C36.0675 30 36.059 30 36.0506 30C36.0421 30 36.0336 30 36.0252 30C36.0167 30 36.0082 30 35.9998 30C35.9913 30 35.9829 30 35.9744 30C35.966 30 35.9575 30 35.9491 30C35.9406 30 35.9322 30 35.9237 30C35.9153 30 35.9068 30 35.8984 30C35.89 30 35.8815 30 35.8731 30C35.8647 30 35.8563 30 35.8478 30C35.8394 30 35.831 30 35.8226 30C35.8142 30 35.8058 30 35.7973 30C35.7889 30 35.7805 30 35.7721 30C35.7637 30 35.7553 30 35.7469 30C35.7385 30 35.7302 30 35.7218 30C35.7134 30 35.705 30 35.6966 30C35.6882 30 35.6799 30 35.6715 30C35.6631 30 35.6548 30 35.6464 30C35.638 30 35.6297 30 35.6213 30C35.613 30 35.6046 30 35.5963 30C35.5879 30 35.5796 30 35.5713 30C35.5629 30 35.5546 30 35.5463 30C35.538 30 35.5296 30 35.5213 30C35.513 30 35.5047 30 35.4964 30C35.4881 30 35.4798 30 35.4715 30C35.4632 30 35.4549 30 35.4466 30C35.4383 30 35.4301 30 35.4218 30C35.4135 30 35.4052 30 35.397 30C35.3887 30 35.3805 30 35.3722 30C35.364 30 35.3557 30 35.3475 30C35.3392 30 35.331 30 35.3228 30C35.3145 30 35.3063 30 35.2981 30C35.2899 30 35.2817 30 35.2735 30C35.2653 30 35.2571 30 35.2489 30C35.2407 30 35.2325 30 35.2243 30C35.2161 30 35.208 30 35.1998 30C35.1916 30 35.1835 30 35.1753 30C35.1672 30 35.159 30 35.1509 30C35.1427 30 35.1346 30 35.1265 30C35.1184 30 35.1102 30 35.1021 30C35.094 30 35.0859 30 35.0778 30C35.0697 30 35.0616 30 35.0535 30C35.0454 30 35.0374 30 35.0293 30C35.0212 30 35.0132 30 35.0051 30C34.997 30 34.989 30 34.981 30C34.9729 30 34.9649 30 34.9569 30C34.9488 30 34.9408 30 34.9328 30C34.9248 30 34.9168 30 34.9088 30C34.9008 30 34.8928 30 34.8848 30C34.8768 30 34.8689 30 34.8609 30C34.853 30 34.845 30 34.837 30C34.8291 30 34.8212 30 34.8132 30C34.8053 30 34.7974 30 34.7895 30C34.7816 30 34.7736 30 34.7658 30C34.7579 30 34.75 30 34.7421 30C34.7342 30 34.7263 30 34.7185 30C34.7106 30 34.7028 30 34.6949 30C34.6871 30 34.6792 30 34.6714 30C34.6636 30 34.6558 30 34.648 30C34.6402 30 34.6324 30 34.6246 30C34.6168 30 34.609 30 34.6012 30C34.5935 30 34.5857 30 34.578 30C34.5702 30 34.5625 30 34.5547 30C34.547 30 34.5393 30 34.5316 30C34.5238 30 34.5161 30 34.5084 30C34.5008 30 34.4931 30 34.4854 30C34.4777 30 34.4701 30 34.4624 30C34.4548 30 34.4471 30 34.4395 30C34.4318 30 34.4242 30 34.4166 30C34.409 30 34.4014 30 34.3938 30C34.3862 30 34.3786 30 34.3711 30C34.3635 30 34.3559 30 34.3484 30C34.3408 30 34.3333 30 34.3258 30C34.3182 30 34.3107 30 34.3032 30C34.2957 30 34.2882 30 34.2807 30C34.2732 30 34.2658 30 34.2583 30C34.2509 30 34.2434 30 34.236 30C34.2285 30 34.2211 30 34.2137 30C34.2063 30 34.1989 30 34.1915 30C34.1841 30 34.1767 30 34.1693 30C34.1619 30 34.1546 30 34.1472 30C34.1399 30 34.1326 30 34.1252 30C34.1179 30 34.1106 30 34.1033 30C34.096 30 34.0887 30 34.0814 30C34.0742 30 34.0669 30 34.0597 30C34.0524 30 34.0452 30 34.0379 30C34.0307 30 34.0235 30 34.0163 30C34.0091 30 34.0019 30 33.9947 30C33.9875 30 33.9804 30 33.9732 30C33.9661 30 33.9589 30 33.9518 30C33.9447 30 33.9376 30 33.9305 30C33.9234 30 33.9163 30 33.9092 30C33.9021 30 33.8951 30 33.888 30C33.881 30 33.874 30 33.8669 30C33.8599 30 33.8529 30 33.8459 30C33.8389 30 33.8319 30 33.825 30C33.818 30 33.811 30 33.8041 30C33.7972 30 33.7902 30 33.7833 30C33.7764 30 33.7695 30 33.7626 30C33.7557 30 33.7489 30 33.742 30C33.7352 30 33.7283 30 33.7215 30C33.7147 30 33.7078 30 33.701 30C33.6942 30 33.6875 30 33.6807 30C33.6739 30 33.6672 30 33.6604 30C33.6537 30 33.6469 30 33.6402 30C33.6335 30 33.6268 30 33.6201 30C33.6134 30 33.6068 30 33.6001 30C33.5935 30 33.5868 30 33.5802 30C33.5736 30 33.567 30 33.5604 30C33.5538 30 33.5472 30 33.5406 30C33.5341 30 33.5275 30 33.521 30C33.5144 30 33.5079 30 33.5014 30C33.4949 30 33.4884 30 33.4819 30C33.4755 30 33.469 30 33.4626 30C33.4561 30 33.4497 30 33.4433 30C33.4369 30 33.4305 30 33.4241 30C33.4177 30 33.4114 30 33.405 30C33.3987 30 33.3923 30 33.386 30C33.3797 30 33.3734 30 33.3671 30C33.3608 30 33.3546 30 33.3483 30C33.3421 30 33.3358 30 33.3296 30C33.3234 30 33.3172 30 33.311 30C33.3048 30 33.2987 30 33.2925 30C33.2864 30 33.2802 30 33.2741 30C33.268 30 33.2619 30 33.2558 30C33.2497 30 33.2437 30 33.2376 30C33.2316 30 33.2255 30 33.2195 30C33.2135 30 33.2075 30 33.2015 30C33.1956 30 33.1896 30 33.1837 30C33.1777 30 33.1718 30 33.1659 30C33.16 30 33.1541 30 33.1482 30C33.1423 30 33.1365 30 33.1306 30C33.1248 30 33.119 30 33.1131 30C33.1073 30 33.1016 30 33.0958 30C33.09 30 33.0843 30 33.0785 30C33.0728 30 33.0671 30 33.0614 30C33.0557 30 33.05 30 33.0444 30C33.0387 30 33.0331 30 33.0274 30C33.0218 30 33.0162 30 33.0106 30C33.005 30 32.9995 30 32.9939 30C32.9884 30 32.9829 30 32.9773 30C32.9718 30 32.9663 30 32.9609 30C32.9554 30 32.9499 30 32.9445 30C32.9391 30 32.9337 30 32.9283 30C32.9229 30 32.9175 30 32.9121 30C32.9068 30 32.9014 30 32.8961 30C32.8908 30 32.8855 30 32.8802 30C32.8749 30 32.8697 30 32.8644 30C32.8592 30 32.854 30 32.8488 30C32.8436 30 32.8384 30 32.8332 30C32.8281 30 32.8229 30 32.8178 30C32.8127 30 32.8076 30 32.8025 30C32.7974 30 32.7924 30 32.7873 30C32.7823 30 32.7773 30 32.7723 30C32.7673 30 32.7623 30 32.7573 30C32.7524 30 32.7474 30 32.7425 30C32.7376 30 32.7327 30 32.7278 30C32.7229 30 32.7181 30 32.7132 30C32.7084 30 32.7036 30 32.6988 30C32.694 30 32.6892 30 32.6845 30C32.6797 30 32.675 30 32.6703 30C32.6656 30 32.6609 30 32.6562 30C32.6516 30 32.6469 30 32.6423 30C32.6377 30 32.6331 30 32.6285 30C32.6239 30 32.6193 30 32.6148 30C32.6103 30 32.6057 30 32.6012 30C32.5968 30 32.5923 30 32.5878 30C32.5834 30 32.579 30 32.5745 30C32.5701 30 32.5658 30 32.5614 30C32.557 30 32.5527 30 32.5484 30C32.5441 30 32.5398 30 32.5355 30C32.5312 30 32.527 30 32.5227 30C32.5185 30 32.5143 30 32.5101 30C32.5059 30 32.5018 30 32.4976 30C32.4935 30 32.4894 30 32.4853 30C32.4812 30 32.4771 30 32.4731 30C32.469 30 32.465 30 32.461 30C32.457 30 32.453 30 32.4491 30C32.4451 30 32.4412 30 32.4373 30C32.4334 30 32.4295 30 32.4256 30C32.4218 30 32.4179 30 32.4141 30C32.4103 30 32.4065 30 32.4027 30C32.399 30 32.3952 30 32.3915 30C32.3878 30 32.3841 30 32.3804 30C32.3768 30 32.3731 30 32.3695 30C32.3659 30 32.3623 30 32.3587 30C32.3551 30 32.3516 30 32.348 30C32.3445 30 32.341 30 32.3375 30C32.3341 30 32.3306 30 32.3272 30C32.3237 30 32.3203 30 32.317 30C32.3136 30 32.3102 30 32.3069 30C32.3036 30 32.3003 30 32.297 30C32.2937 30 32.2904 30 32.2872 30C32.284 30 32.2808 30 32.2776 30C32.2744 30 32.2712 30 32.2681 30C32.265 30 32.2619 30 32.2588 30C32.2557 30 32.2527 30 32.2496 30C32.2466 30 32.2436 30 32.2406 30C32.2376 30 32.2347 30 32.2318 30C32.2288 30 32.2259 30 32.2231 30C32.2202 30 32.2173 30 32.2145 30C32.2117 30 32.2089 30 32.2061 30C32.2033 30 32.2006 30 32.1979 30C32.1952 30 32.1925 30 32.1898 30C32.1871 30 32.1845 30 32.1819 30C32.1793 30 32.1767 30 32.1741 30C32.1715 30 32.169 30 32.1665 30C32.164 30 32.1615 30 32.1591 30C32.1566 30 32.1542 30 32.1518 30C32.1494 30 32.147 30 32.1446 30C32.1423 30 32.14 30 32.1377 30C32.1354 30 32.1331 30 32.1309 30C32.1286 30 32.1264 30 32.1242 30C32.1221 30 32.1199 30 32.1178 30C32.1156 30 32.1135 30 32.1115 30C32.1094 30 32.1073 30 32.1053 30C32.1033 30 32.1013 30 32.0993 30C32.0974 30 32.0954 30 32.0935 30C32.0916 30 32.0898 30 32.0879 30C32.086 30 32.0842 30 32.0824 30C32.0806 30 32.0789 30 32.0771 30C32.0754 30 32.0737 30 32.072 30C32.0703 30 32.0686 30 32.067 30C32.0654 30 32.0638 30 32.0622 30C32.0607 30 32.0591 30 32.0576 30C32.0561 30 32.0546 30 32.0532 30C32.0517 30 32.0503 30 32.0489 30C32.0475 30 32.0461 30 32.0448 30C32.0434 30 32.0421 30 32.0409 30C32.0396 30 32.0383 30 32.0371 30C32.0359 30 32.0347 30 32.0335 30C32.0324 30 32.0312 30 32.0301 30C32.029 30 32.028 30 32.0269 30C32.0259 30 32.0249 30 32.0239 30C32.0229 30 32.0219 30 32.021 30C32.0201 30 32.0192 30 32.0183 30C32.0175 30 32.0166 30 32.0158 30C32.015 30 32.0142 30 32.0135 30C32.0127 30 32.012 30 32.0114 30C32.0107 30 32.01 30 32.0094 30C32.0088 30 32.0082 30 32.0076 30C32.0071 30 32.0065 30 32.006 30C32.0055 30 32.0051 30 32.0046 30C32.0042 30 32.0038 30 32.0034 30C32.003 30 32.0027 30 32.0024 30C32.002 30 32.0018 30 32.0015 30C32.0013 30 32.001 30 32.0009 30C32.0007 30 32.0005 30 32.0004 30C32.0003 30 32.0002 30 32.0001 30C32 30 32 30 32 31ZM41.098 32C46.0152 32 50 28.0154 50 23.099H48C48 26.9107 44.9108 30 41.098 30V32ZM50 23.099C50 18.1828 46.0154 14.197 41.098 14.197V16.197C44.9106 16.197 48 19.2872 48 23.099H50ZM41.098 14.197C41.0682 14.197 41.043 14.1981 41.025 14.1992C41.0083 14.2002 40.9934 14.2014 40.9903 14.2016C40.9839 14.2021 40.9893 14.2017 40.9963 14.2013C41.0047 14.2008 41.0202 14.2 41.04 14.2V16.2C41.0698 16.2 41.095 16.1989 41.113 16.1978C41.1297 16.1969 41.1446 16.1957 41.1477 16.1954C41.1541 16.1949 41.1487 16.1954 41.1417 16.1958C41.1333 16.1963 41.1178 16.197 41.098 16.197V14.197ZM42.0325 15.3226C42.0966 14.8035 42.143 14.2601 42.143 13.696H40.143C40.143 14.1519 40.1054 14.6086 40.0475 15.0775L42.0325 15.3226ZM42.143 13.696C42.143 6.43379 36.2563 0.546021 28.993 0.546021V2.54602C35.1517 2.54602 40.143 7.53825 40.143 13.696H42.143ZM28.993 0.546021C23.3299 0.546021 18.5229 4.13042 16.6691 9.13998L18.5449 9.83406C20.1191 5.57962 24.1981 2.54602 28.993 2.54602V0.546021ZM18.3148 8.78056C17.0481 7.51157 15.2925 6.72302 13.356 6.72302V8.72302C14.7395 8.72302 15.9919 9.28447 16.8992 10.1935L18.3148 8.78056ZM13.356 6.72302C9.48482 6.72302 6.347 9.86063 6.347 13.731H8.347C8.347 10.9654 10.5892 8.72302 13.356 8.72302V6.72302ZM6.347 13.731C6.347 13.8101 6.35165 13.8808 6.35475 13.9258C6.3585 13.9801 6.35991 13.9973 6.36064 14.0177L8.35936 13.9463C8.35709 13.8827 8.352 13.817 8.35 13.788C8.34735 13.7497 8.347 13.7369 8.347 13.731H6.347ZM7.09359 13.0182C3.00841 14.1473 0 17.8807 0 22.331H2C2 18.8073 4.38159 15.8427 7.62641 14.9459L7.09359 13.0182ZM0 22.331C0 27.6714 4.32879 32 9.67 32V30C5.43321 30 2 26.5667 2 22.331H0ZM9.67 32C9.67162 32 9.67326 32 9.67492 32C9.67659 32 9.67828 32 9.68 32C9.68171 32 9.68345 32 9.68522 32C9.68699 32 9.68878 32 9.6906 32C9.69242 32 9.69426 32 9.69613 32C9.69799 32 9.69988 32 9.7018 32C9.70372 32 9.70566 32 9.70763 32C9.70959 32 9.71159 32 9.7136 32C9.71562 32 9.71766 32 9.71972 32C9.72179 32 9.72388 32 9.72599 32C9.72811 32 9.73024 32 9.73241 32C9.73457 32 9.73676 32 9.73897 32C9.74118 32 9.74341 32 9.74567 32C9.74793 32 9.75022 32 9.75252 32C9.75483 32 9.75716 32 9.75952 32C9.76187 32 9.76425 32 9.76666 32C9.76906 32 9.77149 32 9.77394 32C9.77639 32 9.77886 32 9.78136 32C9.78386 32 9.78638 32 9.78892 32C9.79147 32 9.79404 32 9.79663 32C9.79922 32 9.80184 32 9.80447 32C9.80711 32 9.80977 32 9.81246 32C9.81514 32 9.81785 32 9.82058 32C9.82331 32 9.82607 32 9.82884 32C9.83162 32 9.83442 32 9.83724 32C9.84007 32 9.84291 32 9.84578 32C9.84865 32 9.85154 32 9.85445 32C9.85736 32 9.8603 32 9.86326 32C9.86622 32 9.8692 32 9.8722 32C9.87521 32 9.87823 32 9.88128 32C9.88433 32 9.8874 32 9.89049 32C9.89358 32 9.8967 32 9.89984 32C9.90297 32 9.90613 32 9.90931 32C9.91249 32 9.9157 32 9.91892 32C9.92215 32 9.92539 32 9.92866 32C9.93193 32 9.93522 32 9.93853 32C9.94184 32 9.94518 32 9.94853 32C9.95189 32 9.95526 32 9.95866 32C9.96206 32 9.96548 32 9.96892 32C9.97236 32 9.97582 32 9.97931 32C9.98279 32 9.9863 32 9.98982 32C9.99335 32 9.9969 32 10.0005 32C10.004 32 10.0076 32 10.0112 32C10.0148 32 10.0185 32 10.0221 32C10.0258 32 10.0294 32 10.0331 32C10.0368 32 10.0405 32 10.0443 32C10.048 32 10.0518 32 10.0555 32C10.0593 32 10.0631 32 10.0669 32C10.0708 32 10.0746 32 10.0784 32C10.0823 32 10.0862 32 10.0901 32C10.094 32 10.0979 32 10.1018 32C10.1058 32 10.1097 32 10.1137 32C10.1177 32 10.1217 32 10.1257 32C10.1297 32 10.1338 32 10.1378 32C10.1419 32 10.146 32 10.15 32C10.1541 32 10.1583 32 10.1624 32C10.1665 32 10.1707 32 10.1749 32C10.179 32 10.1832 32 10.1875 32C10.1917 32 10.1959 32 10.2002 32C10.2044 32 10.2087 32 10.213 32C10.2173 32 10.2216 32 10.2259 32C10.2302 32 10.2346 32 10.2389 32C10.2433 32 10.2477 32 10.2521 32C10.2565 32 10.2609 32 10.2654 32C10.2698 32 10.2743 32 10.2788 32C10.2832 32 10.2877 32 10.2922 32C10.2968 32 10.3013 32 10.3059 32C10.3104 32 10.315 32 10.3196 32C10.3242 32 10.3288 32 10.3334 32C10.338 32 10.3427 32 10.3473 32C10.352 32 10.3567 32 10.3614 32C10.3661 32 10.3708 32 10.3755 32C10.3803 32 10.385 32 10.3898 32C10.3946 32 10.3993 32 10.4041 32C10.4089 32 10.4138 32 10.4186 32C10.4235 32 10.4283 32 10.4332 32C10.4381 32 10.443 32 10.4479 32C10.4528 32 10.4577 32 10.4627 32C10.4676 32 10.4726 32 10.4775 32C10.4825 32 10.4875 32 10.4925 32C10.4975 32 10.5026 32 10.5076 32C10.5127 32 10.5177 32 10.5228 32C10.5279 32 10.533 32 10.5381 32C10.5432 32 10.5484 32 10.5535 32C10.5587 32 10.5638 32 10.569 32C10.5742 32 10.5794 32 10.5846 32C10.5898 32 10.595 32 10.6003 32C10.6055 32 10.6108 32 10.6161 32C10.6214 32 10.6267 32 10.632 32C10.6373 32 10.6426 32 10.6479 32C10.6533 32 10.6586 32 10.664 32C10.6694 32 10.6748 32 10.6802 32C10.6856 32 10.691 32 10.6965 32C10.7019 32 10.7074 32 10.7128 32C10.7183 32 10.7238 32 10.7293 32C10.7348 32 10.7403 32 10.7458 32C10.7514 32 10.7569 32 10.7625 32C10.768 32 10.7736 32 10.7792 32C10.7848 32 10.7904 32 10.796 32C10.8016 32 10.8073 32 10.8129 32C10.8186 32 10.8243 32 10.8299 32C10.8356 32 10.8413 32 10.847 32C10.8527 32 10.8585 32 10.8642 32C10.8699 32 10.8757 32 10.8815 32C10.8872 32 10.893 32 10.8988 32C10.9046 32 10.9104 32 10.9163 32C10.9221 32 10.9279 32 10.9338 32C10.9396 32 10.9455 32 10.9514 32C10.9573 32 10.9632 32 10.9691 32C10.975 32 10.9809 32 10.9869 32C10.9928 32 10.9988 32 11.0047 32C11.0107 32 11.0167 32 11.0227 32C11.0287 32 11.0347 32 11.0407 32C11.0467 32 11.0528 32 11.0588 32C11.0649 32 11.0709 32 11.077 32C11.0831 32 11.0892 32 11.0953 32C11.1014 32 11.1075 32 11.1136 32C11.1197 32 11.1259 32 11.132 32C11.1382 32 11.1443 32 11.1505 32C11.1567 32 11.1629 32 11.1691 32C11.1753 32 11.1815 32 11.1878 32C11.194 32 11.2002 32 11.2065 32C11.2128 32 11.219 32 11.2253 32C11.2316 32 11.2379 32 11.2442 32C11.2505 32 11.2568 32 11.2631 32C11.2695 32 11.2758 32 11.2822 32C11.2885 32 11.2949 32 11.3013 32C11.3077 32 11.314 32 11.3205 32C11.3269 32 11.3333 32 11.3397 32C11.3461 32 11.3526 32 11.359 32C11.3655 32 11.3719 32 11.3784 32C11.3849 32 11.3914 32 11.3979 32C11.4044 32 11.4109 32 11.4174 32C11.4239 32 11.4304 32 11.437 32C11.4435 32 11.4501 32 11.4567 32C11.4632 32 11.4698 32 11.4764 32C11.483 32 11.4896 32 11.4962 32C11.5028 32 11.5094 32 11.516 32C11.5227 32 11.5293 32 11.536 32C11.5426 32 11.5493 32 11.556 32C11.5626 32 11.5693 32 11.576 32C11.5827 32 11.5894 32 11.5962 32C11.6029 32 11.6096 32 11.6163 32C11.6231 32 11.6298 32 11.6366 32C11.6433 32 11.6501 32 11.6569 32C11.6637 32 11.6705 32 11.6773 32C11.6841 32 11.6909 32 11.6977 32C11.7045 32 11.7113 32 11.7182 32C11.725 32 11.7319 32 11.7387 32C11.7456 32 11.7525 32 11.7593 32C11.7662 32 11.7731 32 11.78 32C11.7869 32 11.7938 32 11.8007 32C11.8076 32 11.8146 32 11.8215 32C11.8284 32 11.8354 32 11.8423 32C11.8493 32 11.8562 32 11.8632 32C11.8702 32 11.8772 32 11.8842 32C11.8911 32 11.8981 32 11.9052 32C11.9122 32 11.9192 32 11.9262 32C11.9332 32 11.9403 32 11.9473 32C11.9544 32 11.9614 32 11.9685 32C11.9755 32 11.9826 32 11.9897 32C11.9967 32 12.0038 32 12.0109 32C12.018 32 12.0251 32 12.0322 32C12.0393 32 12.0465 32 12.0536 32C12.0607 32 12.0679 32 12.075 32C12.0821 32 12.0893 32 12.0964 32C12.1036 32 12.1108 32 12.118 32C12.1251 32 12.1323 32 12.1395 32C12.1467 32 12.1539 32 12.1611 32C12.1683 32 12.1755 32 12.1827 32C12.19 32 12.1972 32 12.2044 32C12.2117 32 12.2189 32 12.2261 32C12.2334 32 12.2407 32 12.2479 32C12.2552 32 12.2625 32 12.2697 32C12.277 32 12.2843 32 12.2916 32C12.2989 32 12.3062 32 12.3135 32C12.3208 32 12.3281 32 12.3354 32C12.3428 32 12.3501 32 12.3574 32C12.3648 32 12.3721 32 12.3794 32C12.3868 32 12.3941 32 12.4015 32C12.4089 32 12.4162 32 12.4236 32C12.431 32 12.4384 32 12.4457 32C12.4531 32 12.4605 32 12.4679 32C12.4753 32 12.4827 32 12.4901 32C12.4975 32 12.505 32 12.5124 32C12.5198 32 12.5272 32 12.5347 32C12.5421 32 12.5495 32 12.557 32C12.5644 32 12.5719 32 12.5793 32C12.5868 32 12.5943 32 12.6017 32C12.6092 32 12.6167 32 12.6242 32C12.6316 32 12.6391 32 12.6466 32C12.6541 32 12.6616 32 12.6691 32C12.6766 32 12.6841 32 12.6916 32C12.6991 32 12.7066 32 12.7142 32C12.7217 32 12.7292 32 12.7367 32C12.7443 32 12.7518 32 12.7593 32C12.7669 32 12.7744 32 12.782 32C12.7895 32 12.7971 32 12.8046 32C12.8122 32 12.8198 32 12.8273 32C12.8349 32 12.8425 32 12.85 32C12.8576 32 12.8652 32 12.8728 32C12.8804 32 12.888 32 12.8955 32C12.9031 32 12.9107 32 12.9183 32C12.9259 32 12.9335 32 12.9412 32C12.9488 32 12.9564 32 12.964 32C12.9716 32 12.9792 32 12.9869 32C12.9945 32 13.0021 32 13.0097 32C13.0174 32 13.025 32 13.0326 32C13.0403 32 13.0479 32 13.0556 32C13.0632 32 13.0709 32 13.0785 32C13.0862 32 13.0938 32 13.1015 32C13.1091 32 13.1168 32 13.1245 32C13.1321 32 13.1398 32 13.1475 32C13.1552 32 13.1628 32 13.1705 32C13.1782 32 13.1859 32 13.1935 32C13.2012 32 13.2089 32 13.2166 32C13.2243 32 13.232 32 13.2397 32C13.2474 32 13.2551 32 13.2628 32C13.2705 32 13.2782 32 13.2859 32C13.2936 32 13.3013 32 13.309 32C13.3167 32 13.3244 32 13.3321 32C13.3398 32 13.3475 32 13.3552 32C13.363 32 13.3707 32 13.3784 32C13.3861 32 13.3938 32 13.4016 32C13.4093 32 13.417 32 13.4247 32C13.4325 32 13.4402 32 13.4479 32C13.4557 32 13.4634 32 13.4711 32C13.4789 32 13.4866 32 13.4943 32C13.5021 32 13.5098 32 13.5175 32C13.5253 32 13.533 32 13.5408 32C13.5485 32 13.5563 32 13.564 32C13.5717 32 13.5795 32 13.5872 32C13.595 32 13.6027 32 13.6105 32C13.6182 32 13.626 32 13.6337 32C13.6415 32 13.6492 32 13.657 32C13.6647 32 13.6725 32 13.6802 32C13.688 32 13.6957 32 13.7035 32C13.7112 32 13.719 32 13.7267 32C13.7345 32 13.7422 32 13.75 32C13.7578 32 13.7655 32 13.7733 32C13.781 32 13.7888 32 13.7965 32C13.8043 32 13.812 32 13.8198 32C13.8275 32 13.8353 32 13.8431 32C13.8508 32 13.8586 32 13.8663 32C13.8741 32 13.8818 32 13.8896 32C13.8973 32 13.9051 32 13.9128 32C13.9206 32 13.9283 32 13.9361 32C13.9438 32 13.9516 32 13.9593 32C13.9671 32 13.9748 32 13.9826 32C13.9903 32 13.9981 32 14.0058 32C14.0136 32 14.0213 32 14.0291 32C14.0368 32 14.0445 32 14.0523 32C14.06 32 14.0678 32 14.0755 32C14.0832 32 14.091 32 14.0987 32C14.1065 32 14.1142 32 14.1219 32C14.1297 32 14.1374 32 14.1451 32C14.1529 32 14.1606 32 14.1683 32C14.176 32 14.1838 32 14.1915 32C14.1992 32 14.2069 32 14.2147 32C14.2224 32 14.2301 32 14.2378 32C14.2455 32 14.2532 32 14.261 32C14.2687 32 14.2764 32 14.2841 32C14.2918 32 14.2995 32 14.3072 32C14.3149 32 14.3226 32 14.3303 32C14.338 32 14.3457 32 14.3534 32C14.3611 32 14.3688 32 14.3765 32C14.3842 32 14.3918 32 14.3995 32C14.4072 32 14.4149 32 14.4226 32C14.4303 32 14.4379 32 14.4456 32C14.4533 32 14.4609 32 14.4686 32C14.4763 32 14.4839 32 14.4916 32C14.4993 32 14.5069 32 14.5146 32C14.5222 32 14.5299 32 14.5375 32C14.5452 32 14.5528 32 14.5604 32C14.5681 32 14.5757 32 14.5834 32C14.591 32 14.5986 32 14.6062 32C14.6139 32 14.6215 32 14.6291 32C14.6367 32 14.6443 32 14.652 32C14.6596 32 14.6672 32 14.6748 32C14.6824 32 14.69 32 14.6976 32C14.7052 32 14.7128 32 14.7203 32C14.7279 32 14.7355 32 14.7431 32C14.7507 32 14.7582 32 14.7658 32C14.7734 32 14.7809 32 14.7885 32C14.7961 32 14.8036 32 14.8112 32C14.8187 32 14.8263 32 14.8338 32C14.8413 32 14.8489 32 14.8564 32C14.8639 32 14.8715 32 14.879 32C14.8865 32 14.894 32 14.9015 32C14.9091 32 14.9166 32 14.9241 32C14.9316 32 14.9391 32 14.9465 32C14.954 32 14.9615 32 14.969 32C14.9765 32 14.984 32 14.9914 32C14.9989 32 15.0064 32 15.0138 32C15.0213 32 15.0287 32 15.0362 32C15.0436 32 15.0511 32 15.0585 32C15.0659 32 15.0734 32 15.0808 32C15.0882 32 15.0956 32 15.1031 32C15.1105 32 15.1179 32 15.1253 32C15.1327 32 15.1401 32 15.1475 32C15.1548 32 15.1622 32 15.1696 32C15.177 32 15.1843 32 15.1917 32C15.1991 32 15.2064 32 15.2138 32C15.2211 32 15.2285 32 15.2358 32C15.2431 32 15.2505 32 15.2578 32C15.2651 32 15.2724 32 15.2797 32C15.287 32 15.2943 32 15.3016 32C15.3089 32 15.3162 32 15.3235 32C15.3308 32 15.3381 32 15.3453 32C15.3526 32 15.3599 32 15.3671 32C15.3744 32 15.3816 32 15.3888 32C15.3961 32 15.4033 32 15.4105 32C15.4178 32 15.425 32 15.4322 32C15.4394 32 15.4466 32 15.4538 32C15.461 32 15.4682 32 15.4753 32C15.4825 32 15.4897 32 15.4968 32C15.504 32 15.5112 32 15.5183 32C15.5254 32 15.5326 32 15.5397 32C15.5468 32 15.554 32 15.5611 32C15.5682 32 15.5753 32 15.5824 32C15.5895 32 15.5966 32 15.6037 32C15.6107 32 15.6178 32 15.6249 32C15.6319 32 15.639 32 15.646 32C15.6531 32 15.6601 32 15.6671 32C15.6742 32 15.6812 32 15.6882 32C15.6952 32 15.7022 32 15.7092 32C15.7162 32 15.7232 32 15.7302 32C15.7371 32 15.7441 32 15.751 32C15.758 32 15.765 32 15.7719 32C15.7788 32 15.7858 32 15.7927 32C15.7996 32 15.8065 32 15.8134 32C15.8203 32 15.8272 32 15.8341 32C15.841 32 15.8478 32 15.8547 32C15.8616 32 15.8684 32 15.8752 32C15.8821 32 15.8889 32 15.8957 32C15.9026 32 15.9094 32 15.9162 32C15.923 32 15.9298 32 15.9366 32C15.9433 32 15.9501 32 15.9569 32C15.9636 32 15.9704 32 15.9771 32C15.9839 32 15.9906 32 15.9973 32C16.004 32 16.0108 32 16.0175 32C16.0242 32 16.0308 32 16.0375 32C16.0442 32 16.0509 32 16.0575 32C16.0642 32 16.0708 32 16.0775 32C16.0841 32 16.0907 32 16.0973 32C16.1039 32 16.1105 32 16.1171 32C16.1237 32 16.1303 32 16.1369 32C16.1434 32 16.15 32 16.1566 32C16.1631 32 16.1696 32 16.1762 32C16.1827 32 16.1892 32 16.1957 32C16.2022 32 16.2087 32 16.2152 32C16.2216 32 16.2281 32 16.2346 32C16.241 32 16.2475 32 16.2539 32C16.2603 32 16.2667 32 16.2731 32C16.2796 32 16.286 32 16.2923 32C16.2987 32 16.3051 32 16.3114 32C16.3178 32 16.3242 32 16.3305 32C16.3368 32 16.3431 32 16.3495 32C16.3558 32 16.3621 32 16.3683 32C16.3746 32 16.3809 32 16.3872 32C16.3934 32 16.3997 32 16.4059 32C16.4121 32 16.4184 32 16.4246 32C16.4308 32 16.437 32 16.4432 32C16.4494 32 16.4555 32 16.4617 32C16.4678 32 16.474 32 16.4801 32C16.4862 32 16.4924 32 16.4985 32C16.5046 32 16.5107 32 16.5168 32C16.5228 32 16.5289 32 16.5349 32C16.541 32 16.547 32 16.5531 32C16.5591 32 16.5651 32 16.5711 32C16.5771 32 16.5831 32 16.5891 32C16.595 32 16.601 32 16.6069 32C16.6129 32 16.6188 32 16.6247 32C16.6306 32 16.6365 32 16.6424 32C16.6483 32 16.6542 32 16.66 32C16.6659 32 16.6717 32 16.6776 32C16.6834 32 16.6892 32 16.695 32C16.7008 32 16.7066 32 16.7124 32C16.7182 32 16.7239 32 16.7297 32C16.7354 32 16.7411 32 16.7469 32C16.7526 32 16.7583 32 16.764 32C16.7696 32 16.7753 32 16.781 32C16.7866 32 16.7923 32 16.7979 32C16.8035 32 16.8091 32 16.8147 32C16.8203 32 16.8259 32 16.8315 32C16.837 32 16.8426 32 16.8481 32C16.8537 32 16.8592 32 16.8647 32C16.8702 32 16.8757 32 16.8812 32C16.8866 32 16.8921 32 16.8975 32C16.903 32 16.9084 32 16.9138 32C16.9192 32 16.9246 32 16.93 32C16.9354 32 16.9407 32 16.9461 32C16.9514 32 16.9568 32 16.9621 32C16.9674 32 16.9727 32 16.978 32C16.9833 32 16.9885 32 16.9938 32C16.999 32 17.0043 32 17.0095 32C17.0147 32 17.0199 32 17.0251 32C17.0303 32 17.0355 32 17.0406 32C17.0458 32 17.0509 32 17.056 32C17.0611 32 17.0662 32 17.0713 32C17.0764 32 17.0815 32 17.0865 32C17.0916 32 17.0966 32 17.1016 32C17.1067 32 17.1117 32 17.1166 32C17.1216 32 17.1266 32 17.1315 32C17.1365 32 17.1414 32 17.1463 32C17.1513 32 17.1562 32 17.161 32C17.1659 32 17.1708 32 17.1756 32C17.1805 32 17.1853 32 17.1901 32C17.1949 32 17.1997 32 17.2045 32C17.2093 32 17.214 32 17.2188 32C17.2235 32 17.2282 32 17.2329 32C17.2376 32 17.2423 32 17.247 32C17.2517 32 17.2563 32 17.2609 32C17.2656 32 17.2702 32 17.2748 32C17.2794 32 17.284 32 17.2885 32C17.2931 32 17.2976 32 17.3021 32C17.3067 32 17.3112 32 17.3156 32C17.3201 32 17.3246 32 17.329 32C17.3335 32 17.3379 32 17.3423 32C17.3467 32 17.3511 32 17.3555 32C17.3599 32 17.3642 32 17.3686 32C17.3729 32 17.3772 32 17.3815 32C17.3858 32 17.3901 32 17.3943 32C17.3986 32 17.4028 32 17.4071 32C17.4113 32 17.4155 32 17.4197 32C17.4238 32 17.428 32 17.4321 32C17.4363 32 17.4404 32 17.4445 32C17.4486 32 17.4527 32 17.4568 32C17.4608 32 17.4649 32 17.4689 32C17.4729 32 17.4769 32 17.4809 32C17.4849 32 17.4888 32 17.4928 32C17.4967 32 17.5006 32 17.5046 32C17.5085 32 17.5123 32 17.5162 32C17.5201 32 17.5239 32 17.5277 32C17.5316 32 17.5354 32 17.5391 32C17.5429 32 17.5467 32 17.5504 32C17.5542 32 17.5579 32 17.5616 32C17.5653 32 17.569 32 17.5726 32C17.5763 32 17.5799 32 17.5835 32C17.5871 32 17.5907 32 17.5943 32C17.5979 32 17.6014 32 17.605 32C17.6085 32 17.612 32 17.6155 32C17.619 32 17.6225 32 17.6259 32C17.6293 32 17.6328 32 17.6362 32C17.6396 32 17.643 32 17.6463 32C17.6497 32 17.653 32 17.6563 32C17.6597 32 17.663 32 17.6662 32C17.6695 32 17.6728 32 17.676 32C17.6792 32 17.6824 32 17.6856 32C17.6888 32 17.692 32 17.6951 32C17.6983 32 17.7014 32 17.7045 32C17.7076 32 17.7107 32 17.7137 32C17.7168 32 17.7198 32 17.7228 32C17.7258 32 17.7288 32 17.7318 32C17.7347 32 17.7377 32 17.7406 32C17.7435 32 17.7464 32 17.7493 32C17.7522 32 17.755 32 17.7578 32C17.7607 32 17.7635 32 17.7663 32C17.769 32 17.7718 32 17.7745 32C17.7773 32 17.78 32 17.7827 32C17.7854 32 17.788 32 17.7907 32C17.7933 32 17.7959 32 17.7985 32C17.8011 32 17.8037 32 17.8063 32C17.8088 32 17.8113 32 17.8139 32C17.8164 32 17.8188 32 17.8213 32C17.8237 32 17.8262 32 17.8286 32C17.831 32 17.8334 32 17.8357 32C17.8381 32 17.8405 32 17.8428 32C17.8451 32 17.8474 32 17.8496 32C17.8519 32 17.8541 32 17.8564 32C17.8586 32 17.8608 32 17.8629 32C17.8651 32 17.8673 32 17.8694 32C17.8715 32 17.8736 32 17.8757 32C17.8777 32 17.8798 32 17.8818 32C17.8838 32 17.8858 32 17.8878 32C17.8898 32 17.8917 32 17.8936 32C17.8956 32 17.8975 32 17.8993 32C17.9012 32 17.9031 32 17.9049 32C17.9067 32 17.9085 32 17.9103 32C17.9121 32 17.9138 32 17.9155 32C17.9173 32 17.919 32 17.9206 32C17.9223 32 17.924 32 17.9256 32C17.9272 32 17.9288 32 17.9304 32C17.9319 32 17.9335 32 17.935 32C17.9365 32 17.938 32 17.9395 32C17.941 32 17.9424 32 17.9438 32C17.9452 32 17.9466 32 17.948 32C17.9494 32 17.9507 32 17.952 32C17.9533 32 17.9546 32 17.9559 32C17.9571 32 17.9584 32 17.9596 32C17.9608 32 17.962 32 17.9631 32C17.9643 32 17.9654 32 17.9665 32C17.9676 32 17.9687 32 17.9697 32C17.9708 32 17.9718 32 17.9728 32C17.9738 32 17.9748 32 17.9757 32C17.9766 32 17.9776 32 17.9785 32C17.9793 32 17.9802 32 17.981 32C17.9819 32 17.9827 32 17.9835 32C17.9842 32 17.985 32 17.9857 32C17.9864 32 17.9871 32 17.9878 32C17.9885 32 17.9891 32 17.9898 32C17.9904 32 17.991 32 17.9915 32C17.9921 32 17.9926 32 17.9931 32C17.9936 32 17.9941 32 17.9946 32C17.995 32 17.9954 32 17.9958 32C17.9962 32 17.9966 32 17.9969 32C17.9973 32 17.9976 32 17.9979 32C17.9982 32 17.9984 32 17.9986 32C17.9989 32 17.9991 32 17.9992 32C17.9994 32 17.9995 32 17.9997 32C17.9998 32 17.9999 32 17.9999 32C18 32 18 32 18 31C18 30 18 30 17.9999 30C17.9999 30 17.9998 30 17.9997 30C17.9995 30 17.9994 30 17.9992 30C17.9991 30 17.9989 30 17.9986 30C17.9984 30 17.9982 30 17.9979 30C17.9976 30 17.9973 30 17.9969 30C17.9966 30 17.9962 30 17.9958 30C17.9954 30 17.995 30 17.9946 30C17.9941 30 17.9936 30 17.9931 30C17.9926 30 17.9921 30 17.9915 30C17.991 30 17.9904 30 17.9898 30C17.9891 30 17.9885 30 17.9878 30C17.9871 30 17.9864 30 17.9857 30C17.985 30 17.9842 30 17.9835 30C17.9827 30 17.9819 30 17.981 30C17.9802 30 17.9793 30 17.9785 30C17.9776 30 17.9766 30 17.9757 30C17.9748 30 17.9738 30 17.9728 30C17.9718 30 17.9708 30 17.9697 30C17.9687 30 17.9676 30 17.9665 30C17.9654 30 17.9643 30 17.9631 30C17.962 30 17.9608 30 17.9596 30C17.9584 30 17.9571 30 17.9559 30C17.9546 30 17.9533 30 17.952 30C17.9507 30 17.9494 30 17.948 30C17.9466 30 17.9452 30 17.9438 30C17.9424 30 17.941 30 17.9395 30C17.938 30 17.9365 30 17.935 30C17.9335 30 17.9319 30 17.9304 30C17.9288 30 17.9272 30 17.9256 30C17.924 30 17.9223 30 17.9206 30C17.919 30 17.9173 30 17.9155 30C17.9138 30 17.9121 30 17.9103 30C17.9085 30 17.9067 30 17.9049 30C17.9031 30 17.9012 30 17.8993 30C17.8975 30 17.8956 30 17.8936 30C17.8917 30 17.8898 30 17.8878 30C17.8858 30 17.8838 30 17.8818 30C17.8798 30 17.8777 30 17.8757 30C17.8736 30 17.8715 30 17.8694 30C17.8673 30 17.8651 30 17.8629 30C17.8608 30 17.8586 30 17.8564 30C17.8541 30 17.8519 30 17.8496 30C17.8474 30 17.8451 30 17.8428 30C17.8405 30 17.8381 30 17.8357 30C17.8334 30 17.831 30 17.8286 30C17.8262 30 17.8237 30 17.8213 30C17.8188 30 17.8164 30 17.8139 30C17.8113 30 17.8088 30 17.8063 30C17.8037 30 17.8011 30 17.7985 30C17.7959 30 17.7933 30 17.7907 30C17.788 30 17.7854 30 17.7827 30C17.78 30 17.7773 30 17.7745 30C17.7718 30 17.769 30 17.7663 30C17.7635 30 17.7607 30 17.7578 30C17.755 30 17.7522 30 17.7493 30C17.7464 30 17.7435 30 17.7406 30C17.7377 30 17.7347 30 17.7318 30C17.7288 30 17.7258 30 17.7228 30C17.7198 30 17.7168 30 17.7137 30C17.7107 30 17.7076 30 17.7045 30C17.7014 30 17.6983 30 17.6951 30C17.692 30 17.6888 30 17.6856 30C17.6824 30 17.6792 30 17.676 30C17.6728 30 17.6695 30 17.6662 30C17.663 30 17.6597 30 17.6563 30C17.653 30 17.6497 30 17.6463 30C17.643 30 17.6396 30 17.6362 30C17.6328 30 17.6293 30 17.6259 30C17.6225 30 17.619 30 17.6155 30C17.612 30 17.6085 30 17.605 30C17.6014 30 17.5979 30 17.5943 30C17.5907 30 17.5871 30 17.5835 30C17.5799 30 17.5763 30 17.5726 30C17.569 30 17.5653 30 17.5616 30C17.5579 30 17.5542 30 17.5504 30C17.5467 30 17.5429 30 17.5391 30C17.5354 30 17.5316 30 17.5277 30C17.5239 30 17.5201 30 17.5162 30C17.5123 30 17.5085 30 17.5046 30C17.5006 30 17.4967 30 17.4928 30C17.4888 30 17.4849 30 17.4809 30C17.4769 30 17.4729 30 17.4689 30C17.4649 30 17.4608 30 17.4568 30C17.4527 30 17.4486 30 17.4445 30C17.4404 30 17.4363 30 17.4321 30C17.428 30 17.4238 30 17.4197 30C17.4155 30 17.4113 30 17.4071 30C17.4028 30 17.3986 30 17.3943 30C17.3901 30 17.3858 30 17.3815 30C17.3772 30 17.3729 30 17.3686 30C17.3642 30 17.3599 30 17.3555 30C17.3511 30 17.3467 30 17.3423 30C17.3379 30 17.3335 30 17.329 30C17.3246 30 17.3201 30 17.3156 30C17.3112 30 17.3067 30 17.3021 30C17.2976 30 17.2931 30 17.2885 30C17.284 30 17.2794 30 17.2748 30C17.2702 30 17.2656 30 17.2609 30C17.2563 30 17.2517 30 17.247 30C17.2423 30 17.2376 30 17.2329 30C17.2282 30 17.2235 30 17.2188 30C17.214 30 17.2093 30 17.2045 30C17.1997 30 17.1949 30 17.1901 30C17.1853 30 17.1805 30 17.1756 30C17.1708 30 17.1659 30 17.161 30C17.1562 30 17.1513 30 17.1463 30C17.1414 30 17.1365 30 17.1315 30C17.1266 30 17.1216 30 17.1166 30C17.1117 30 17.1067 30 17.1016 30C17.0966 30 17.0916 30 17.0865 30C17.0815 30 17.0764 30 17.0713 30C17.0662 30 17.0611 30 17.056 30C17.0509 30 17.0458 30 17.0406 30C17.0355 30 17.0303 30 17.0251 30C17.0199 30 17.0147 30 17.0095 30C17.0043 30 16.999 30 16.9938 30C16.9885 30 16.9833 30 16.978 30C16.9727 30 16.9674 30 16.9621 30C16.9568 30 16.9514 30 16.9461 30C16.9407 30 16.9354 30 16.93 30C16.9246 30 16.9192 30 16.9138 30C16.9084 30 16.903 30 16.8975 30C16.8921 30 16.8866 30 16.8812 30C16.8757 30 16.8702 30 16.8647 30C16.8592 30 16.8537 30 16.8481 30C16.8426 30 16.837 30 16.8315 30C16.8259 30 16.8203 30 16.8147 30C16.8091 30 16.8035 30 16.7979 30C16.7923 30 16.7866 30 16.781 30C16.7753 30 16.7696 30 16.764 30C16.7583 30 16.7526 30 16.7469 30C16.7411 30 16.7354 30 16.7297 30C16.7239 30 16.7182 30 16.7124 30C16.7066 30 16.7008 30 16.695 30C16.6892 30 16.6834 30 16.6776 30C16.6717 30 16.6659 30 16.66 30C16.6542 30 16.6483 30 16.6424 30C16.6365 30 16.6306 30 16.6247 30C16.6188 30 16.6129 30 16.6069 30C16.601 30 16.595 30 16.5891 30C16.5831 30 16.5771 30 16.5711 30C16.5651 30 16.5591 30 16.5531 30C16.547 30 16.541 30 16.5349 30C16.5289 30 16.5228 30 16.5168 30C16.5107 30 16.5046 30 16.4985 30C16.4924 30 16.4862 30 16.4801 30C16.474 30 16.4678 30 16.4617 30C16.4555 30 16.4494 30 16.4432 30C16.437 30 16.4308 30 16.4246 30C16.4184 30 16.4121 30 16.4059 30C16.3997 30 16.3934 30 16.3872 30C16.3809 30 16.3746 30 16.3683 30C16.3621 30 16.3558 30 16.3495 30C16.3431 30 16.3368 30 16.3305 30C16.3242 30 16.3178 30 16.3114 30C16.3051 30 16.2987 30 16.2923 30C16.286 30 16.2796 30 16.2731 30C16.2667 30 16.2603 30 16.2539 30C16.2475 30 16.241 30 16.2346 30C16.2281 30 16.2216 30 16.2152 30C16.2087 30 16.2022 30 16.1957 30C16.1892 30 16.1827 30 16.1762 30C16.1696 30 16.1631 30 16.1566 30C16.15 30 16.1434 30 16.1369 30C16.1303 30 16.1237 30 16.1171 30C16.1105 30 16.1039 30 16.0973 30C16.0907 30 16.0841 30 16.0775 30C16.0708 30 16.0642 30 16.0575 30C16.0509 30 16.0442 30 16.0375 30C16.0308 30 16.0242 30 16.0175 30C16.0108 30 16.004 30 15.9973 30C15.9906 30 15.9839 30 15.9771 30C15.9704 30 15.9636 30 15.9569 30C15.9501 30 15.9433 30 15.9366 30C15.9298 30 15.923 30 15.9162 30C15.9094 30 15.9026 30 15.8957 30C15.8889 30 15.8821 30 15.8752 30C15.8684 30 15.8616 30 15.8547 30C15.8478 30 15.841 30 15.8341 30C15.8272 30 15.8203 30 15.8134 30C15.8065 30 15.7996 30 15.7927 30C15.7858 30 15.7788 30 15.7719 30C15.765 30 15.758 30 15.751 30C15.7441 30 15.7371 30 15.7302 30C15.7232 30 15.7162 30 15.7092 30C15.7022 30 15.6952 30 15.6882 30C15.6812 30 15.6742 30 15.6671 30C15.6601 30 15.6531 30 15.646 30C15.639 30 15.6319 30 15.6249 30C15.6178 30 15.6107 30 15.6037 30C15.5966 30 15.5895 30 15.5824 30C15.5753 30 15.5682 30 15.5611 30C15.554 30 15.5468 30 15.5397 30C15.5326 30 15.5254 30 15.5183 30C15.5112 30 15.504 30 15.4968 30C15.4897 30 15.4825 30 15.4753 30C15.4682 30 15.461 30 15.4538 30C15.4466 30 15.4394 30 15.4322 30C15.425 30 15.4178 30 15.4105 30C15.4033 30 15.3961 30 15.3888 30C15.3816 30 15.3744 30 15.3671 30C15.3599 30 15.3526 30 15.3453 30C15.3381 30 15.3308 30 15.3235 30C15.3162 30 15.3089 30 15.3016 30C15.2943 30 15.287 30 15.2797 30C15.2724 30 15.2651 30 15.2578 30C15.2505 30 15.2431 30 15.2358 30C15.2285 30 15.2211 30 15.2138 30C15.2064 30 15.1991 30 15.1917 30C15.1843 30 15.177 30 15.1696 30C15.1622 30 15.1548 30 15.1475 30C15.1401 30 15.1327 30 15.1253 30C15.1179 30 15.1105 30 15.1031 30C15.0956 30 15.0882 30 15.0808 30C15.0734 30 15.0659 30 15.0585 30C15.0511 30 15.0436 30 15.0362 30C15.0287 30 15.0213 30 15.0138 30C15.0064 30 14.9989 30 14.9914 30C14.984 30 14.9765 30 14.969 30C14.9615 30 14.954 30 14.9465 30C14.9391 30 14.9316 30 14.9241 30C14.9166 30 14.9091 30 14.9015 30C14.894 30 14.8865 30 14.879 30C14.8715 30 14.8639 30 14.8564 30C14.8489 30 14.8413 30 14.8338 30C14.8263 30 14.8187 30 14.8112 30C14.8036 30 14.7961 30 14.7885 30C14.7809 30 14.7734 30 14.7658 30C14.7582 30 14.7507 30 14.7431 30C14.7355 30 14.7279 30 14.7203 30C14.7128 30 14.7052 30 14.6976 30C14.69 30 14.6824 30 14.6748 30C14.6672 30 14.6596 30 14.652 30C14.6443 30 14.6367 30 14.6291 30C14.6215 30 14.6139 30 14.6062 30C14.5986 30 14.591 30 14.5834 30C14.5757 30 14.5681 30 14.5604 30C14.5528 30 14.5452 30 14.5375 30C14.5299 30 14.5222 30 14.5146 30C14.5069 30 14.4993 30 14.4916 30C14.4839 30 14.4763 30 14.4686 30C14.4609 30 14.4533 30 14.4456 30C14.4379 30 14.4303 30 14.4226 30C14.4149 30 14.4072 30 14.3995 30C14.3918 30 14.3842 30 14.3765 30C14.3688 30 14.3611 30 14.3534 30C14.3457 30 14.338 30 14.3303 30C14.3226 30 14.3149 30 14.3072 30C14.2995 30 14.2918 30 14.2841 30C14.2764 30 14.2687 30 14.261 30C14.2532 30 14.2455 30 14.2378 30C14.2301 30 14.2224 30 14.2147 30C14.2069 30 14.1992 30 14.1915 30C14.1838 30 14.176 30 14.1683 30C14.1606 30 14.1529 30 14.1451 30C14.1374 30 14.1297 30 14.1219 30C14.1142 30 14.1065 30 14.0987 30C14.091 30 14.0832 30 14.0755 30C14.0678 30 14.06 30 14.0523 30C14.0445 30 14.0368 30 14.0291 30C14.0213 30 14.0136 30 14.0058 30C13.9981 30 13.9903 30 13.9826 30C13.9748 30 13.9671 30 13.9593 30C13.9516 30 13.9438 30 13.9361 30C13.9283 30 13.9206 30 13.9128 30C13.9051 30 13.8973 30 13.8896 30C13.8818 30 13.8741 30 13.8663 30C13.8586 30 13.8508 30 13.8431 30C13.8353 30 13.8275 30 13.8198 30C13.812 30 13.8043 30 13.7965 30C13.7888 30 13.781 30 13.7733 30C13.7655 30 13.7578 30 13.75 30C13.7422 30 13.7345 30 13.7267 30C13.719 30 13.7112 30 13.7035 30C13.6957 30 13.688 30 13.6802 30C13.6725 30 13.6647 30 13.657 30C13.6492 30 13.6415 30 13.6337 30C13.626 30 13.6182 30 13.6105 30C13.6027 30 13.595 30 13.5872 30C13.5795 30 13.5717 30 13.564 30C13.5563 30 13.5485 30 13.5408 30C13.533 30 13.5253 30 13.5175 30C13.5098 30 13.5021 30 13.4943 30C13.4866 30 13.4789 30 13.4711 30C13.4634 30 13.4557 30 13.4479 30C13.4402 30 13.4325 30 13.4247 30C13.417 30 13.4093 30 13.4016 30C13.3938 30 13.3861 30 13.3784 30C13.3707 30 13.363 30 13.3552 30C13.3475 30 13.3398 30 13.3321 30C13.3244 30 13.3167 30 13.309 30C13.3013 30 13.2936 30 13.2859 30C13.2782 30 13.2705 30 13.2628 30C13.2551 30 13.2474 30 13.2397 30C13.232 30 13.2243 30 13.2166 30C13.2089 30 13.2012 30 13.1935 30C13.1859 30 13.1782 30 13.1705 30C13.1628 30 13.1552 30 13.1475 30C13.1398 30 13.1321 30 13.1245 30C13.1168 30 13.1091 30 13.1015 30C13.0938 30 13.0862 30 13.0785 30C13.0709 30 13.0632 30 13.0556 30C13.0479 30 13.0403 30 13.0326 30C13.025 30 13.0174 30 13.0097 30C13.0021 30 12.9945 30 12.9869 30C12.9792 30 12.9716 30 12.964 30C12.9564 30 12.9488 30 12.9412 30C12.9335 30 12.9259 30 12.9183 30C12.9107 30 12.9031 30 12.8955 30C12.888 30 12.8804 30 12.8728 30C12.8652 30 12.8576 30 12.85 30C12.8425 30 12.8349 30 12.8273 30C12.8198 30 12.8122 30 12.8046 30C12.7971 30 12.7895 30 12.782 30C12.7744 30 12.7669 30 12.7593 30C12.7518 30 12.7443 30 12.7367 30C12.7292 30 12.7217 30 12.7142 30C12.7066 30 12.6991 30 12.6916 30C12.6841 30 12.6766 30 12.6691 30C12.6616 30 12.6541 30 12.6466 30C12.6391 30 12.6316 30 12.6242 30C12.6167 30 12.6092 30 12.6017 30C12.5943 30 12.5868 30 12.5793 30C12.5719 30 12.5644 30 12.557 30C12.5495 30 12.5421 30 12.5347 30C12.5272 30 12.5198 30 12.5124 30C12.505 30 12.4975 30 12.4901 30C12.4827 30 12.4753 30 12.4679 30C12.4605 30 12.4531 30 12.4457 30C12.4384 30 12.431 30 12.4236 30C12.4162 30 12.4089 30 12.4015 30C12.3941 30 12.3868 30 12.3794 30C12.3721 30 12.3648 30 12.3574 30C12.3501 30 12.3428 30 12.3354 30C12.3281 30 12.3208 30 12.3135 30C12.3062 30 12.2989 30 12.2916 30C12.2843 30 12.277 30 12.2697 30C12.2625 30 12.2552 30 12.2479 30C12.2407 30 12.2334 30 12.2261 30C12.2189 30 12.2117 30 12.2044 30C12.1972 30 12.19 30 12.1827 30C12.1755 30 12.1683 30 12.1611 30C12.1539 30 12.1467 30 12.1395 30C12.1323 30 12.1251 30 12.118 30C12.1108 30 12.1036 30 12.0964 30C12.0893 30 12.0821 30 12.075 30C12.0679 30 12.0607 30 12.0536 30C12.0465 30 12.0393 30 12.0322 30C12.0251 30 12.018 30 12.0109 30C12.0038 30 11.9967 30 11.9897 30C11.9826 30 11.9755 30 11.9685 30C11.9614 30 11.9544 30 11.9473 30C11.9403 30 11.9332 30 11.9262 30C11.9192 30 11.9122 30 11.9052 30C11.8981 30 11.8911 30 11.8842 30C11.8772 30 11.8702 30 11.8632 30C11.8562 30 11.8493 30 11.8423 30C11.8354 30 11.8284 30 11.8215 30C11.8146 30 11.8076 30 11.8007 30C11.7938 30 11.7869 30 11.78 30C11.7731 30 11.7662 30 11.7593 30C11.7525 30 11.7456 30 11.7387 30C11.7319 30 11.725 30 11.7182 30C11.7113 30 11.7045 30 11.6977 30C11.6909 30 11.6841 30 11.6773 30C11.6705 30 11.6637 30 11.6569 30C11.6501 30 11.6433 30 11.6366 30C11.6298 30 11.6231 30 11.6163 30C11.6096 30 11.6029 30 11.5962 30C11.5894 30 11.5827 30 11.576 30C11.5693 30 11.5626 30 11.556 30C11.5493 30 11.5426 30 11.536 30C11.5293 30 11.5227 30 11.516 30C11.5094 30 11.5028 30 11.4962 30C11.4896 30 11.483 30 11.4764 30C11.4698 30 11.4632 30 11.4567 30C11.4501 30 11.4435 30 11.437 30C11.4304 30 11.4239 30 11.4174 30C11.4109 30 11.4044 30 11.3979 30C11.3914 30 11.3849 30 11.3784 30C11.3719 30 11.3655 30 11.359 30C11.3526 30 11.3461 30 11.3397 30C11.3333 30 11.3269 30 11.3205 30C11.314 30 11.3077 30 11.3013 30C11.2949 30 11.2885 30 11.2822 30C11.2758 30 11.2695 30 11.2631 30C11.2568 30 11.2505 30 11.2442 30C11.2379 30 11.2316 30 11.2253 30C11.219 30 11.2128 30 11.2065 30C11.2002 30 11.194 30 11.1878 30C11.1815 30 11.1753 30 11.1691 30C11.1629 30 11.1567 30 11.1505 30C11.1443 30 11.1382 30 11.132 30C11.1259 30 11.1197 30 11.1136 30C11.1075 30 11.1014 30 11.0953 30C11.0892 30 11.0831 30 11.077 30C11.0709 30 11.0649 30 11.0588 30C11.0528 30 11.0467 30 11.0407 30C11.0347 30 11.0287 30 11.0227 30C11.0167 30 11.0107 30 11.0047 30C10.9988 30 10.9928 30 10.9869 30C10.9809 30 10.975 30 10.9691 30C10.9632 30 10.9573 30 10.9514 30C10.9455 30 10.9396 30 10.9338 30C10.9279 30 10.9221 30 10.9163 30C10.9104 30 10.9046 30 10.8988 30C10.893 30 10.8872 30 10.8815 30C10.8757 30 10.8699 30 10.8642 30C10.8585 30 10.8527 30 10.847 30C10.8413 30 10.8356 30 10.8299 30C10.8243 30 10.8186 30 10.8129 30C10.8073 30 10.8016 30 10.796 30C10.7904 30 10.7848 30 10.7792 30C10.7736 30 10.768 30 10.7625 30C10.7569 30 10.7514 30 10.7458 30C10.7403 30 10.7348 30 10.7293 30C10.7238 30 10.7183 30 10.7128 30C10.7074 30 10.7019 30 10.6965 30C10.691 30 10.6856 30 10.6802 30C10.6748 30 10.6694 30 10.664 30C10.6586 30 10.6533 30 10.6479 30C10.6426 30 10.6373 30 10.632 30C10.6267 30 10.6214 30 10.6161 30C10.6108 30 10.6055 30 10.6003 30C10.595 30 10.5898 30 10.5846 30C10.5794 30 10.5742 30 10.569 30C10.5638 30 10.5587 30 10.5535 30C10.5484 30 10.5432 30 10.5381 30C10.533 30 10.5279 30 10.5228 30C10.5177 30 10.5127 30 10.5076 30C10.5026 30 10.4975 30 10.4925 30C10.4875 30 10.4825 30 10.4775 30C10.4726 30 10.4676 30 10.4627 30C10.4577 30 10.4528 30 10.4479 30C10.443 30 10.4381 30 10.4332 30C10.4283 30 10.4235 30 10.4186 30C10.4138 30 10.4089 30 10.4041 30C10.3993 30 10.3946 30 10.3898 30C10.385 30 10.3803 30 10.3755 30C10.3708 30 10.3661 30 10.3614 30C10.3567 30 10.352 30 10.3473 30C10.3427 30 10.338 30 10.3334 30C10.3288 30 10.3242 30 10.3196 30C10.315 30 10.3104 30 10.3059 30C10.3013 30 10.2968 30 10.2922 30C10.2877 30 10.2832 30 10.2788 30C10.2743 30 10.2698 30 10.2654 30C10.2609 30 10.2565 30 10.2521 30C10.2477 30 10.2433 30 10.2389 30C10.2346 30 10.2302 30 10.2259 30C10.2216 30 10.2173 30 10.213 30C10.2087 30 10.2044 30 10.2002 30C10.1959 30 10.1917 30 10.1875 30C10.1832 30 10.179 30 10.1749 30C10.1707 30 10.1665 30 10.1624 30C10.1583 30 10.1541 30 10.15 30C10.146 30 10.1419 30 10.1378 30C10.1338 30 10.1297 30 10.1257 30C10.1217 30 10.1177 30 10.1137 30C10.1097 30 10.1058 30 10.1018 30C10.0979 30 10.094 30 10.0901 30C10.0862 30 10.0823 30 10.0784 30C10.0746 30 10.0708 30 10.0669 30C10.0631 30 10.0593 30 10.0555 30C10.0518 30 10.048 30 10.0443 30C10.0405 30 10.0368 30 10.0331 30C10.0294 30 10.0258 30 10.0221 30C10.0185 30 10.0148 30 10.0112 30C10.0076 30 10.004 30 10.0005 30C9.9969 30 9.99335 30 9.98982 30C9.9863 30 9.98279 30 9.97931 30C9.97582 30 9.97236 30 9.96892 30C9.96548 30 9.96206 30 9.95866 30C9.95526 30 9.95189 30 9.94853 30C9.94518 30 9.94184 30 9.93853 30C9.93522 30 9.93193 30 9.92866 30C9.92539 30 9.92215 30 9.91892 30C9.9157 30 9.91249 30 9.90931 30C9.90613 30 9.90297 30 9.89984 30C9.8967 30 9.89358 30 9.89049 30C9.8874 30 9.88433 30 9.88128 30C9.87823 30 9.87521 30 9.8722 30C9.8692 30 9.86622 30 9.86326 30C9.8603 30 9.85736 30 9.85445 30C9.85154 30 9.84865 30 9.84578 30C9.84291 30 9.84007 30 9.83724 30C9.83442 30 9.83162 30 9.82884 30C9.82607 30 9.82331 30 9.82058 30C9.81785 30 9.81514 30 9.81246 30C9.80977 30 9.80711 30 9.80447 30C9.80184 30 9.79922 30 9.79663 30C9.79404 30 9.79147 30 9.78892 30C9.78638 30 9.78386 30 9.78136 30C9.77886 30 9.77639 30 9.77394 30C9.77149 30 9.76906 30 9.76666 30C9.76425 30 9.76187 30 9.75952 30C9.75716 30 9.75483 30 9.75252 30C9.75022 30 9.74793 30 9.74567 30C9.74341 30 9.74118 30 9.73897 30C9.73676 30 9.73457 30 9.73241 30C9.73024 30 9.72811 30 9.72599 30C9.72388 30 9.72179 30 9.71972 30C9.71766 30 9.71562 30 9.7136 30C9.71159 30 9.70959 30 9.70763 30C9.70566 30 9.70372 30 9.7018 30C9.69988 30 9.69799 30 9.69613 30C9.69426 30 9.69242 30 9.6906 30C9.68878 30 9.68699 30 9.68522 30C9.68345 30 9.68171 30 9.68 30C9.67828 30 9.67659 30 9.67492 30C9.67326 30 9.67162 30 9.67 30V32ZM29.2929 36.2929L24.2929 41.2929L25.7071 42.7071L30.7071 37.7071L29.2929 36.2929ZM25.7071 41.2929L20.7071 36.2929L19.2929 37.7071L24.2929 42.7071L25.7071 41.2929ZM24 22V41.668H26V22H24Z" fill="black"/>
</svg>
