<svg width="50" height="50" viewBox="0 0 50 50" fill="none" xmlns="http://www.w3.org/2000/svg">
	<path d="M25.2 12.2C18.2 12.2 12.4 17.9 12.4 25C12.4 32.1 18.1 37.8 25.2 37.8C32.3 37.8 38 32 38 25C38 18 32.2 12.2 25.2 12.2ZM25.2 33.2C20.7 33.2 17 29.5 17 25C17 20.5 20.7 16.8 25.2 16.8C29.7 16.8 33.4 20.5 33.4 25C33.4 29.5 29.7 33.2 25.2 33.2Z" fill="#838EAC"/>
	<path d="M38.5 14.8C40.1016 14.8 41.4 13.5016 41.4 11.9C41.4 10.2984 40.1016 8.99999 38.5 8.99999C36.8984 8.99999 35.6 10.2984 35.6 11.9C35.6 13.5016 36.8984 14.8 38.5 14.8Z" fill="#838EAC"/>
	<path d="M46 4.39999C43.4 1.69999 39.7 0.299988 35.5 0.299988H14.9C6.19999 0.299988 0.399994 6.09999 0.399994 14.8V35.3C0.399994 39.6 1.79999 43.3 4.59999 46C7.29999 48.6 10.9 49.9 15 49.9H35.4C39.7 49.9 43.3 48.5 45.9 46C48.6 43.4 50 39.7 50 35.4V14.8C50 10.6 48.6 6.99999 46 4.39999ZM45.6 35.4C45.6 38.5 44.5 41 42.7 42.7C40.9 44.4 38.4 45.3 35.4 45.3H15C12 45.3 9.49999 44.4 7.69999 42.7C5.89999 40.9 4.99999 38.4 4.99999 35.3V14.8C4.99999 11.8 5.89999 9.29999 7.69999 7.49999C9.39999 5.79999 12 4.89999 15 4.89999H35.6C38.6 4.89999 41.1 5.79999 42.9 7.59999C44.6 9.39999 45.6 11.9 45.6 14.8V35.4Z" fill="#838EAC"/>
</svg>
