<svg width="420" height="402" viewBox="0 0 420 402" fill="none" xmlns="http://www.w3.org/2000/svg">
    <path d="M5.326 130.572H95.337V401.444H5.326V130.572ZM50.934 0C20.127 0 0 20.225 0 46.771C0 72.771 19.538 93.584 49.756 93.584H50.33C81.726 93.584 101.278 72.77 101.278 46.771C100.689 20.225 81.727 0 50.934 0ZM316.339 124.209C268.56 124.209 247.155 150.489 235.214 168.919V130.572H145.176C146.368 155.983 145.176 401.444 145.176 401.444H235.214V250.17C235.214 242.068 235.803 233.996 238.172 228.192C244.691 212.018 259.505 195.269 284.354 195.269C316.956 195.269 329.976 220.12 329.976 256.517V401.443H420V246.12C420 162.921 375.598 124.209 316.339 124.209Z" fill="#838EAC"/>
</svg>
